<mxfile host="app.diagrams.net" modified="2023-10-20T17:56:28.537Z" agent="Mozilla/5.0 (Windows NT 10.0; Win64; x64) AppleWebKit/537.36 (KHTML, like Gecko) Chrome/118.0.0.0 Safari/537.36" etag="8EX2F3tStu6dKgQ6xDR-" version="22.0.6" type="device">
  <diagram name="Página-1" id="9Q3r8Wk0-lh1teVZr32K">
    <mxGraphModel dx="1737" dy="1668" grid="1" gridSize="10" guides="1" tooltips="1" connect="1" arrows="1" fold="1" page="1" pageScale="1" pageWidth="827" pageHeight="1169" math="0" shadow="0">
      <root>
        <mxCell id="0" />
        <mxCell id="1" parent="0" />
        <mxCell id="wEqpazZtr3Mc7dN9a1HU-1" value="&amp;lt;&amp;lt;Root&amp;gt;&amp;gt;&lt;br&gt;&amp;lt;&amp;lt;Entity&amp;gt;&amp;gt;&lt;br&gt;Ponto" style="rounded=0;whiteSpace=wrap;html=1;" parent="1" vertex="1">
          <mxGeometry x="310" y="80" width="120" height="60" as="geometry" />
        </mxCell>
        <mxCell id="wEqpazZtr3Mc7dN9a1HU-2" value="&amp;lt;&amp;lt;Value Object&amp;gt;&amp;gt;&lt;br&gt;Coordenadas" style="rounded=0;whiteSpace=wrap;html=1;" parent="1" vertex="1">
          <mxGeometry x="540" y="20" width="120" height="60" as="geometry" />
        </mxCell>
        <mxCell id="wEqpazZtr3Mc7dN9a1HU-3" value="&amp;lt;&amp;lt;Root&amp;gt;&amp;gt;&lt;br&gt;&amp;lt;&amp;lt;Entity&amp;gt;&amp;gt;&lt;br&gt;Edifício" style="rounded=0;whiteSpace=wrap;html=1;" parent="1" vertex="1">
          <mxGeometry x="-160.57" y="-122.01" width="120" height="60" as="geometry" />
        </mxCell>
        <mxCell id="wEqpazZtr3Mc7dN9a1HU-4" value="&amp;lt;&amp;lt;Value Object&amp;gt;&amp;gt;&lt;br style=&quot;border-color: var(--border-color);&quot;&gt;Tipo de Ponto" style="rounded=0;whiteSpace=wrap;html=1;" parent="1" vertex="1">
          <mxGeometry x="530" y="-60" width="120" height="60" as="geometry" />
        </mxCell>
        <mxCell id="wEqpazZtr3Mc7dN9a1HU-5" value="1" style="text;html=1;align=center;verticalAlign=middle;resizable=0;points=[];autosize=1;strokeColor=none;fillColor=none;" parent="1" vertex="1">
          <mxGeometry x="-130.09000000000003" y="-62.010000000000005" width="30" height="30" as="geometry" />
        </mxCell>
        <mxCell id="wEqpazZtr3Mc7dN9a1HU-6" value="0..1" style="text;html=1;align=center;verticalAlign=middle;resizable=0;points=[];autosize=1;strokeColor=none;fillColor=none;" parent="1" vertex="1">
          <mxGeometry x="19.520000000000028" y="51.86" width="40" height="30" as="geometry" />
        </mxCell>
        <mxCell id="wEqpazZtr3Mc7dN9a1HU-7" value="" style="endArrow=diamondThin;endFill=1;endSize=24;html=1;rounded=0;exitX=1;exitY=0.5;exitDx=0;exitDy=0;entryX=0;entryY=0.5;entryDx=0;entryDy=0;" parent="1" source="wEqpazZtr3Mc7dN9a1HU-1" target="wEqpazZtr3Mc7dN9a1HU-2" edge="1">
          <mxGeometry width="160" relative="1" as="geometry">
            <mxPoint x="607.5999999999999" y="290" as="sourcePoint" />
            <mxPoint x="1010" y="410" as="targetPoint" />
          </mxGeometry>
        </mxCell>
        <mxCell id="wEqpazZtr3Mc7dN9a1HU-8" value="" style="endArrow=diamondThin;endFill=1;endSize=24;html=1;rounded=0;exitX=1;exitY=0.5;exitDx=0;exitDy=0;entryX=0;entryY=0.5;entryDx=0;entryDy=0;" parent="1" source="wEqpazZtr3Mc7dN9a1HU-1" target="wEqpazZtr3Mc7dN9a1HU-4" edge="1">
          <mxGeometry width="160" relative="1" as="geometry">
            <mxPoint x="1100" y="500" as="sourcePoint" />
            <mxPoint x="1020" y="420" as="targetPoint" />
          </mxGeometry>
        </mxCell>
        <mxCell id="wEqpazZtr3Mc7dN9a1HU-9" value="&amp;lt;&amp;lt;Root&amp;gt;&amp;gt;&lt;br&gt;&amp;lt;&amp;lt;Entity&amp;gt;&amp;gt;&lt;br&gt;Elevador" style="rounded=0;whiteSpace=wrap;html=1;" parent="1" vertex="1">
          <mxGeometry x="19.520000000000024" y="80" width="120" height="60" as="geometry" />
        </mxCell>
        <mxCell id="wEqpazZtr3Mc7dN9a1HU-10" value="" style="endArrow=classic;html=1;rounded=0;entryX=0.5;entryY=0;entryDx=0;entryDy=0;exitX=0.5;exitY=1;exitDx=0;exitDy=0;" parent="1" source="wEqpazZtr3Mc7dN9a1HU-3" target="wEqpazZtr3Mc7dN9a1HU-9" edge="1">
          <mxGeometry width="50" height="50" relative="1" as="geometry">
            <mxPoint x="230" y="170" as="sourcePoint" />
            <mxPoint x="490" y="160" as="targetPoint" />
          </mxGeometry>
        </mxCell>
        <mxCell id="wEqpazZtr3Mc7dN9a1HU-11" value="tem" style="edgeLabel;html=1;align=center;verticalAlign=middle;resizable=0;points=[];labelBackgroundColor=none;" parent="wEqpazZtr3Mc7dN9a1HU-10" vertex="1" connectable="0">
          <mxGeometry x="-0.0876" y="2" relative="1" as="geometry">
            <mxPoint x="29" y="12" as="offset" />
          </mxGeometry>
        </mxCell>
        <mxCell id="wEqpazZtr3Mc7dN9a1HU-12" value="&amp;lt;&amp;lt;Value Object&amp;gt;&amp;gt;&lt;br style=&quot;border-color: var(--border-color);&quot;&gt;Descrição do Edifício" style="rounded=0;whiteSpace=wrap;html=1;" parent="1" vertex="1">
          <mxGeometry x="-359.1" y="-131.95" width="120" height="60" as="geometry" />
        </mxCell>
        <mxCell id="wEqpazZtr3Mc7dN9a1HU-13" value="" style="endArrow=diamondThin;endFill=1;endSize=24;html=1;rounded=0;exitX=-0.029;exitY=0.384;exitDx=0;exitDy=0;entryX=0.992;entryY=0.536;entryDx=0;entryDy=0;exitPerimeter=0;entryPerimeter=0;" parent="1" source="wEqpazZtr3Mc7dN9a1HU-3" target="wEqpazZtr3Mc7dN9a1HU-12" edge="1">
          <mxGeometry width="160" relative="1" as="geometry">
            <mxPoint x="399.42999999999995" y="147.99" as="sourcePoint" />
            <mxPoint x="529.43" y="32.989999999999995" as="targetPoint" />
          </mxGeometry>
        </mxCell>
        <mxCell id="wEqpazZtr3Mc7dN9a1HU-14" value="&amp;lt;&amp;lt;Value Object&amp;gt;&amp;gt;&lt;br style=&quot;border-color: var(--border-color);&quot;&gt;Id Elevador" style="rounded=0;whiteSpace=wrap;html=1;" parent="1" vertex="1">
          <mxGeometry x="-179.01" y="80" width="120" height="60" as="geometry" />
        </mxCell>
        <mxCell id="wEqpazZtr3Mc7dN9a1HU-15" value="" style="endArrow=diamondThin;endFill=1;endSize=24;html=1;rounded=0;exitX=0;exitY=0.5;exitDx=0;exitDy=0;entryX=1;entryY=0.5;entryDx=0;entryDy=0;" parent="1" source="wEqpazZtr3Mc7dN9a1HU-9" target="wEqpazZtr3Mc7dN9a1HU-14" edge="1">
          <mxGeometry width="160" relative="1" as="geometry">
            <mxPoint x="140" y="20" as="sourcePoint" />
            <mxPoint x="230" y="-30" as="targetPoint" />
          </mxGeometry>
        </mxCell>
        <mxCell id="wEqpazZtr3Mc7dN9a1HU-16" value="&amp;lt;&amp;lt;Value Object&amp;gt;&amp;gt;&lt;br style=&quot;border-color: var(--border-color);&quot;&gt;Id Ponto" style="rounded=0;whiteSpace=wrap;html=1;" parent="1" vertex="1">
          <mxGeometry x="500" y="111.86000000000001" width="120" height="60" as="geometry" />
        </mxCell>
        <mxCell id="wEqpazZtr3Mc7dN9a1HU-18" value="" style="shape=stencil(lZ3ZkmTHkWS/Bq8pvi/PPdP/QRGCDUhzCAqInuXvx20wkRGlGnm86q2JNs26ca8vtqip/VT/7V+//OWfP/9U0r/++P23//z5f/361z9++an+t59K+fUfv/z8+69/nP/rp/rff6r/9rfffv/5P37/7b/+8dc///c//xKW8X/9j9/+Z/yF//0nbq2PVgJV0v/587/Mjzr/33/49z/t//7rP761L2qfyH5+7PaN/fiYCe3nFPvO9l3tCz9P7WKfMtrnb39v/5gF7MfHWmLf6HnGx9C/nzfa1/qNfXu84K/sUxP7McD+/Dz9+43e//l5WexzR/v07fupH5v+fvuYXewHvc+m67l+tIr2OYl9oeepH3N/Y18+Nn2v888vsV/89/MQ+05///w5tcfvdf5cF/tC6+f8v6vY//8P+N4+Pz7nw/78B9ov+aM3sZ/89/MU+0HfNz3+3NMez5P0UbfYV3j/c39s/fuF7bs+P+33Y5+r2sPzz/Ux9HnofJt2nif8XvOcz03sF6yfY1/Unr7vHI/j9cWenn/ofkkfA86f2R/b6cWe/v45r/R5Opw/sz2Omxd7OG9n/Vj29+n5z/GUf8S+fIz0I/Znu84fs6/6fdH+83N+t33S70v2Yz+Ovxd7OB/G0vsu4flw7FMXe7rfx6c79WJPz3/8AV2fDfbjsU/6/HRejf5Rl9rT8zTf75Wep+l5dexhf4362B7fbZ/0+1b6Xuc6tL9Pz3/Wvz0/7N9jb+ut0fMnva+PPX2vz8d9WZ9g37fed+nxAb+y/6Hzv6+H+/hyH7G9+M/54cC+t596Pn86CF/ZJ73vJqznfsIJtd/wfY+9+IflI8P91fvDHXnaUzx17LP6Y/h7m54PBeORYy/ft6C/3Y9/++33rejvHftq/jPZl4e78OKf03ouel5VjB/7+ZxZ7Dfsx2Pfvj2fOX459ulH4qOedL1x/HXss8ZTG/ZL27of++ODf2Wft9h3eD9tqT/WPxY9z/Env32es4FgPbep8dTA+/HYy3k4HgmD9/ZDz9uJ/vOxl/N8YvzYut4XE8+fYy/30cL8ybGX+27h/d6axlML/edjL+fnfizw9/Yn/G5iT+d5M391PxIe7+0/w+OnPZ1Xx17i/ZweEcFXgDQVgG80awbiAPAnnCOlKWAxQGKYzEFbSxZkZ7yVDkC+Wv70278CNPsX6Jxu6c1vGPAv1P3wM14AE/6FA5Cb7wA2bLUDkK2WC/oqByC5jgMgZ7SuR+7nBUDRwwFMeyRKZx2ApkfOBqEfvTQeyxU39AFkA1AGrFpG9wDIRa6WMjgAunMOoFcFUJLnAKoB6BSultU9gEXfYdiOq5j3O4Ahx0zDi+cA9NRoj6PzK0BJCqDQpnYN7Q+g0Yfr9uHaI5vwFaDbI1H0cQDiLRwAuWu12Y7rjwTBVwCJ7w+g0Fpq6hAeAHl4B6DfoT98vveAaidf57dUHymtFwC+papJhzw+Eq3WallGLqPUYvth8Foqth8Gn3zF9sPgLWqZ6sylqQOQ1N4BUOxS88fKCqBL8QAk+XYAgwF67c6PxQBdfOxP1mQb6HjsdFQm+9ELM1I1aUXrAChlcQCSMj0APL3TY22+AHA/WFCVN76lcDqrAqhMcgB6VG7MAx2A5L0OgM7W8LMNQP7SAahH9lmreA9Yj0zIZ6ogPYotXwGmASjZUcybuWRzI9jpCqClcQCaTklYHz3hmv7o/DgLvwLoj8547RarUEdKi5bG1BJU5LQYIIdAyZg0iJr9t/shslr0Wscj6H8B4JceemVFXosW31Bn/VIojTq/FFYrBk3l8wp8AeCe7lrKj1wVvaVuubmKMdAz9/ICoGraAYijW9qjvv8VQLz7AyD3J9JNSwF4kDW9H85/oeP+mQB7AUxwHZ4Ztk9AR1c6UnhNAfgbqiYNg+XBgGmPhGfr58r5BIyH6/sVQPf0wEJi5HWzAihSPADJCURqjJZGse8wH8nZrwB5KYCKrXFsGQD3g+VmLum0OHoNQI7us1zxAqCCX9TbtwIo4xsF9KWARa81qVcZVz196WS/YT+c668AQhp6+jdvAcezWFMB5LcegKTFw0djgNYZuPCatybqD4COmXA65ZEyZk7CrR0KoPjhAOQ71IzuT/jy9kgLNlBEC9/63pVTXtlSLbVgHBchUlcAFQTyNIJVfcRd7wHjkdV7AVAiJFuq5QDoBopQNSuA/KUDEK8ygn76cP2x+l8A+KW7HsYHsOg7WB0/cilwKUbaoymA8hqRWNkKIBcuN3USI+NEv6HZBhroSudmH25gAJ6bfbjBG6jqYRypQvoNVQ/jyF7yvyCeQORH6TvURw76BUAlkWwUwsjxMkDCgcgiE8BIhweA36FoFfEAKBESefSpALoUn5n6TwBH7Acgd9wBEFMoZ7sfNq8loza2hM76AUg2tDG5JSf1lxqzQ6JyZQBKqkVtTACZ90PSKyvKYQDYyveOehvaa72+4C291QdtXNNZegC0gif30oP72FNBemlw3z4ZTV/YS2a28W047fk5aDW+TVR4iaCp9ffGBIup/L3GBIuhHkxjgsXQO+TY0/MPPSeOPV1SQ/l+rePV3zUcbh1LgnbxNw49uyZLG1+yXf21NpjAZPyWCyHDvhc3eDT7vQMj56bXZZv4/pt934nv33IFT0bK+1yy5gvbJyP0C3vht7SFlfeqF1/j8LFqWrgtLkwqf74xgcN8g2AcUbBp58/mBKye/z3h9y3WL8OE7KIlyWOPaRGtn/fMCTPltxx7zHHoedi5ocL6KY491cKzpqd7RQJWVr5i5wabbO+zYdbIKlq9IcHR8i3HnlgeWcOafglrdP0fe0oxZaUL9YGE6aTnQ+ey5edq/LSfmJtJyo/qTDhLmiHrC9eb8fM7E86SBt99ISE12XrbeH4m9U+OPSUdk/oDx578gaQJkJHQn/yka7/Y8/OIvzq4oSVp2XtkzGgm5b8FI52fP6k93XcWAIyCAUDS++jYd1wPbk/70e0r+pPv7MmfeWdP8YjbNySkvLOn89ztO/pvSakfgxtW/fsOjC98vQ30T3y/cJXB9vuYeL8n5fcce/InLds+1uW+kDTBsceoX1koY2OhJ2tKa2yMH+2+ntwwY/7AZPaq8ednQn+yaLwfHWFUvdAcx+SGjaL+/+Tzp2jh+dhj3cz44QXXT1V/YFa8H6uWqY89fd+q+2VeeINaiXx2IH4Vv2S1RwK9UmdmR//B4q9jj/Rq9SePPfmf1v9y7Mk/bLrf58AGia7x/mQBgm56CIMbcvS8PfYUH3UtWM6JpJyumdY58f1bpWJOTCEOjV+OPZ2HQ/3zY0/nydD8xlz4e00/4djT+WP5pcnstKn5kMnktGnn28La0rT1v7FiN9WfP/aFGuaV5Dg35mOX1lknx/vL3v9G/20ps24lLAduXT/Hnvwf66+Pjn54nq3x9eIG4Jz0gl/ccZ4tIlmJPQjr7liJ62hZz6DFIgFRmRgKwHpmVsryARAJNNs1vzLSG7P1qS+uAxyAlIlDeoICebuJ16U2XnVphxgGpWosN7gKxhrB8N8KwOROe+SWXgC4lpo2axzAJveyK7d2cXwVleusAEoo5m5vqXLhbeiRtDgkC0KAbNGGNZagHAwFYPFw2odrD52XrwC6lrgzIluXTSjn0JdemuhfnQMPo6+Elg8VD600FmJB9Fq3ctgOACvX+5Eq+AQMTH4E76grALO11qYWgkpMtpL7+QBotZakDkZIPNG/kLUCsZijULK1kLILGTGg7OmJPnwEdVsB+FqLRrHrSg2UsH1Nfq1V/fIDwNdqPTAHgIn/qpHF4spOUG+zApBQ3LS2sLiVwqmya2Hw7uzdxdmKCF/kR288KqNemRRA/lgQY4sCqF2wDHOwNjcJDE3hHgCmFIZqEBwAxZBBjJWmZ24yjqbxoQDKMnlXweY0zZPn+gIgHl5ZGnjuzMt76X7YmSnLW/fDzkyV3colOABiBUXveFUAUmWtj2cXbhc07/4AsBEu6ZW12efzfqpduFHaCMUHQO3kByBNM5t9Pm9T2xVztMFCbQq4tAuqykDlJjKjcx0AHQIHIIfArtxqV7Rj6wDoqIyWRwNcujD11Gjcil219nkA2LBebfFxd0e1bOEBUDXzACQ9tC89w81Wa8P8a7WE4QFgY2izL92YsdHU/TkA0jiqxoHZHYl71W7R3TFoCibtUAB+uK5p6t2ZtjG0zn0AeC4NLVTuzjtuKLNlc+bWm+4PgLQAD0By/7vjcV9NTGYP9GaqtQseAO64peHAAWD77NIIZTN/IGirWQH44ayTdHOEUi3ldQCUm2l+KXLvdkuatD4AitifLNQXAGURW1Za5wHQYdxM5ykA9BustWhPVsYpdmpcpIaKuT+TVVwsR3YAdO02K24dAMq+VNuiE/3WZlFWAOiRLKl2AHQ/NL+BJvpLwS+1Hz3pwzWlXBwAalyZpsQB0IXSrKi0Fya9D0Bf68JzqVnZ5wCojN9M124z578NO/m4cB68zmoAqgROpTpsLs0cgGpFLcwJuDjZAWDxc5mTuJDN1UxOcS/M3R+AemQswNWTnXwbj5kDkCTC3hi89myX4uaSaX7zL9C51Is5JxsXX3Ae7UfTLRqkRwNQC3C37M/eeJAF7dEAdO32pky5vZHZEtKQ9lqJWurakwGg2vKwsGzjxR7qmc0AVF2eWn68A/SYuQK2/QZUiFzmCVwBGvhdAKZBfAfoPc2AkSxougLUm7kA3MG6AtQ5uQBMfucO0KTaFaCO7gVQLXNyBcwfe0smFnUHqL90AbivcQU0O8iwg8YkLzdTBIZpau6NZc4xlKS0WRxnTHPhOGc8psogxXFPP3opL3EzD3lY49lmIuABqDfD9/Q0Ku9mKvXMqiUazglc7AegP5r9pWmKD3vhDTQ9C7ewfTb0782FwwEN1bI/rPgwmzJO9sJsaBDo7LVS1mH2N1EWqSXE0AID4BSFbicfB01zaNl/cxvztBr7Zp5Z0NwsjsPvYJN69sROljntO0yMsqZp+e+B9elpzZub1YenqSfvweMp9ptHIvr8AWikODAsO4Bp+SU6l4Kf9UM5Mh+hsjumWpb1nESej3pijZS9O0+ByVb84mxokI+KAijPt7zC0fEwDmqQpbFJ8eEA1NfgRPl6V3/AH/22nEBcPlOy3I2naTVLeVXM3QdL5ofqQKtbXqOipkSQXqw0RSXCA9CMbuHfMCxS5JaYZQXtfRnSNOyRmAu3poWWrNZ8APqWWEB6eW6G1XTWUqL5Tpi288l1O/GoL0/mJLxQ1tYa+9q8RbfRYDZKpjyJCi8AuhS3ySucX0Vn6072SNxPvJO+pcUNy/FdjaSCjN6s98OFyrPtMF48pDCK/EZHoj29i3FDuWCxbYzaYiWa5xnxAqCK364aHgd5jv6Fakzpzr/BlGgOgFpzt2n/HwD1HkVFvSqAiGfPAvkngC/F3bRatridLurdSwHkL20fqMACFts6VJ7X5FcAfUvcgh3la+PoUs/wtkvxAAo9Utd7+ul9fAWQAHzxHJttFfAgV9Py7poCXhfhl2477qIs0zXrECR3+tKmDbJ4GNI2TyBcX/rRplayeHzYNhX5aJeg5T20X2Ky1F9EPFkBxOfbPoHlcmVZpBgtOrT4jFgwF17s25t0Ju+4aVNhuFQb0bO1kZGDtaf1tQ0+KqfyyCZPmt3GKJ8NCbGRxRgKII3GvbSsMyv20mxvNmJXOiqIWQFEEH9mkz4BPM8z8lXW/0r9+pERSwqgwC8A0uHMpakoOQpgYXi8Tcj7ANDXMK3MwTr1AVgKwEtxaywabeP0o613YAx+rdsGT/Fkq23s08FKI9tSLaNhCjhSyvJaK3+4rVHWYInqZ8nxE1B4tRpZaBRsrwyALL7MR+XWDTRYMW5vrXCMxBHKVjd0sE799hlpXBJ5VkFfACSuuW02UWd9w21ZuBiUyGtJOCd9YiZxW2jZOX36BsC5ygCY1M3lSyug86X4DoAOlgNYjPwtACNFB3D32jaBw85s7LcAjFAckJEg/hZAyc1tQ0V7uh0CDqABNA5om10HB/AMkLcADF4dcHESt0m9cf3hDWBwXsMBHXNkbwG37yCAxqGlA3j01lvAbccJ4L4fTIIUQxrb0weAvrdNe2k8Q9Dvh7pv97TqQXNt1+/pyr1lAZB/Yd5ODeHN1HlzTlyt+XIpSn/ck8X+pc9nItgX16EUBVyuXSloV+7b3Vtj0WeDw5eutGgpVywGbxs6WHmE7l42ErfegiYpJ1RuUdounV/4QrGgKVqK6MNZWFa5tywCP9Pax5NvmS53QiGXCF6nAoiTGLyDrQCqlgXABj2g32rDtsvmC8Uq4NHEx2kKndCxeD9MZSKUxRksG2FQrskcOYwvQ0P2VO++MNchkjk2lgTPJSMxFm7p9vxS4XF6QbYwAOb5fEbUxXWYWo97Shd9BZCCxVNL+Ms8n80mwktx2JQR1rraQwtHIX/F6VO5Rcslg2VdU9Gofsno2mAsjLJMQOkygT6SzDLthceHRRo7K+CSipeEVGEV+UjF21Q2PL1NVKRc0tjdpnYykzkqHF0BeGWZ0FfoYdD90G3Q9KWQ2mymJktRb59tygMst4lv58k3UNM0dh68lprNXB68RZseZLmjXtZuNqqUh3tFl+63p3duHIBX7W6OQSX0Wq2rNuaO8L+gU51ZFHCbyneoGXExWCpNmWVVvdycCwd+RZ3EfEnFWw9HvoRlRXP3OXPgV2xPX3y+YtNTWRx829CQzOJfT32CFwC6P9mmnCds5NomyM1aFsG+UHs8KF1+gD+CCawyi3nbSJJLHidpjnzxiZSM2sH5umR0FiY6bave495fNvmM9WqXlSkmzxex0gzrOS6LeybumWUc2IkRw7KB9APXZ9gXsactuZaWyAeeKsuGsA2mji4TYMb147Q09uTDfqk9uBXHXq7kq73WY5gEujQ6YgLyslCeC3vLKNGsl/rOnppz3z0PUiGXFoc4aRv2Se1p/1oi4jOw+nI9TLUnLrSXxJm++mY94/nzbj9e7G0/0nn15u9TCm/ZSGiei7qWCd5jo0/Y6/u5sEq7Pv9t/2615/X5Y/ZbdQAHNiAv09zjgXfLct8sKRD3qe6Xy/1b9D7CNJz5Azwdb1uzAXfWH3sVrOUsX9a8CTexP3nUT3t01E27lfWCtwnAby5VZNVV3ZxSLxqPbX7/pux0HFxqrwo9LXOhL+xfOdHzhVBQlEqVWXD3qaf1EmhQ//q2kYz5wqKoeio+5xV+GVJmBdA59yZoLfyjq/L4YpQl5wKEVZTrjcybLVK/5DN0LTX+0p6e6Lz4rP029G5puzWtVsbwWM76aITIF8g2jcfME9e26QhkVvN09m+eN+as+CD50gLQlXWaue1zd1utC926yFHKb2DFiN313MusIrlNQSVylD+WyU3Y1Ry54m8/XOEemj20lfs5rusrgI4Sz9xkMDQ9US7FeFMJK6xYva33u1TsT3xTd2Dlvz2Vploap1imfbh2KxjJBioNg5Y39Z/OWZNpX/rCdrQ5n6XzYWzdtOXSsGIdX4VlxZ5Nzy8AvIG8+Di5tu7lzcndIV5AnZyNXppnLReq7dJ0VFnY0Lgt3iksQeQc6fAQL4ClgAuhQE7vsnl5Lx3KU9ONSa7zohNGeXvp4qvp9uGklhiyqbyWhFRdL2W1bQOmed5AUEeyArCHZutBVsuNwSxCfrXeCGeSLK7cr7u3XlmVFUm3aeVUnt8bAJtjf3mtsrxr53PJmVGX2vq2GfCXZo9t++HSTrJtP7AAhFM8K4/F2ZbGrptLg1v91sqyMQcgzeLtEsdt9chavjEFdTZvvtEjJY67UwsVcCUvOuBCj1TAlYCpgCvF0wE/+JauNFUdS38lwjrgQrVVwJXM64ALXVgBV0KyAO6UZ+Hx3UnVCrjSth1woXgq4L4fDIDjZZKlAy/8+XcIpui/R1AO7h2C8wLvEXTmv0Mwu/U94kJv1c/ByVzf2v2+8Wyc8KUzRtKnl/nAAZDOGFaf3CZn3PftXxDXb1y8UZsyM9LtqpPL9Cmn9yUgKeDSoST3+ygcw1r/UHSKXbqspO5QOcdpwxnGJd1nlfBxofNZqSLE7i79dN4TyMtbi0WsdeSU9cs4XKesj3n7cKUo4PLhRL51sLKvM9DHNcKUU2OweN62yVEz8Wu1HtnowuV/QdunMxNorawW2nUch2udqWAhdFuhNbqhOejVytcl/b20qXZeOlh9GGS/ddbL2Tp5OvSeei4dALa8TqUkzslyAj4wc94SWTpx9cLDnPYdeIjSG/2BzUHvUF9xbq4q+MSixCefMZ/XJdgy5vNi+aU9bArZhWw3lHizeFJ95MuTAi4ZedVrulASLed/ABglW1VhXdjb3cRgCscd3UR5Ku8Hl2qpnN7oJkJSr0RmeaTGtcimid11rePpNLjGJIFm6jE8xfqN7A+PU/Ra5GIBwKAZbwUg07OaPg3PT4kSrz0SltqNNRxSdEyV9lGEJJ63TWF5DU5Z2nj2ENqipVHeiIXh4ivGv5j8G7JW/9elSJC19rIm1yKzDZ1cvB+ScUoXq2X4lEqeOr2Tpo7XZolBp7lu/NJr21vaTOQ0v3UzMSRGG1YFECFhmRhMkI+Z66pq3QnLo8tKWpuJITH1ciqATu9lzkkQdgjgYzg4UlxDCaNPIv5XANUOLizfaiMhNzekrm7zhCqTsn10Al+Ky2eEVR5jbhdK0F2IV2htKM/Wl68A3QDIPK42Oaqhv7SKjfHjzpjQrP2hOWcxYduEeomFER6e/QtI78ym/M6qh8/R6C8AJAgnWxpX/WN9pIHNOk+JthcA5fynCRY83fevAKqVOtC7Dx1qU7qm0zuUru2RaC0dgOofM5E61LpdQJyUrq0xeLMnMKcJV0/+DvPNyC/KL81hM2BYaGva7POn7tt7gA9nYOdk+tm6+Dt0u6cXpk+nj8vihFSkPUyynyLFaa70k6LwFaAYAL9DeTNFgIKmaa1lmwlrM78Z9EGXYkxzMEChR0p2CDAlLiZS2BgOatsdJtq2ecTRsGaKfZk9smzG8Mb4YfgMSXZDY/aIvSVysGK6iT0S+d6jv5knRLyntxNaqGfDZ8C81JLeI5znekdY7+QFYcNyvgOhDZ03hAWk34FQSvAdoa2yN4TNRvoOhFKhbwib8PQdCGPiM8LnVH0Hov3YL/dpW9+B0N7/G8KIhN+B6D/4O4yWekW8G65G0Wa3fOflXOj9zR1DBYPud/3G9GVvb0YBUpWkW55tM5cwBvX5yC2aWVffDBuk+nAMGzQA1fRinOGPDerLmgW73JMxktHnW/GUSP8XcJxhevMbcLznfjeSkeayvnMOcHqtD8/ZPB932eSmjSWJNt+Mb6MtGiNKzZXFscPDBjGx39iGDdpggaXmhwAPeGhWkriNWe1vfjS1BLf+Zs4YxVHNJPOfxdOvABqp8VCvGApsj4RryUYX7MVrqVomj6eANWvxikiN1lK1EUOXOcVFq1VRnoXjvtlUi82TOQ7gzdgwAuQ3U8BwKLAPYpqY5G2eELrMvPZxt5ep2padjwIw/Yb0ZnwbTgZPdlSyTk81Mu4eOHOiGsf5kt+pPs6QCzd12eIbuJaqNV5fklrVJwYNvOPqtCGoA4+ZOi2041lpB6CHMXP86rAcFcv+12Fps44+Xx32ljrqS9ZuUX9Hzn/16YQdOyOqSWlt5k7WZj3JPKmm+oXSsamy+gz4jjmqaoNnnnX1rwB6KfIsnOqzZTk7X6tN62xYw6jVlndDz/gApH8k+mPpS1cb1NeQRV1NVWqzxv5TmfQFgFu0WBasYTo/pEwFUPk7+B1X8Z6u2c4lHgB0AFrIrFiiOwC9pyum/qqPiq18kCW7pwsGr9WrJFw1rMnu6YI1veJTtZnNXmw4wqVUWkxr4zl57D1gWXY+448upt6zM16KxUaqRAUaPlzxScg8r6FMC/wSZrbLtBGlrKz7VLB5AdCpERIzRh0o9JaGZYUTHsahrmqD+iivEd21TQHE6I7+XSdY0FqyWzSkwuCYKc3mW22UJijNCEcL00XFCjehxkSAqsm+xYWbaO0uCqD74QB0ghZXq0oxHhdrGRRLFwULhH6DyRQulrgppjq4uMz4FHx9AZD7cwA6JZKVRIupAi4eAFSS1ocXhzTF7oc1kOcb6gtZAbTjsg0WCPIa/IZs7QRBj4O3dACijbOYPp2tjXkNfEvZWOkx9JEeyWZ0Pck17wFTPbIgQlIz1bSBiR03UJ5vZjhSRjcPjXYvdNE8bFpn498w1NENyiu9JZNEXuzzZSu7r8r9Y93eUsUOh2zCMos1Y7OJ/cYEafpwzd5SQU8gV6OLchNStqRajJWk31DtUix48oUsrhG0iQiZffIrk8yzMQFWxjxfztqftlgoN1s4cACUhTsAPQQyJmhDFrcpgMLjA/BHovshOyE1M0H7TUcEtoHYA13m+tnzsALF0mBjXciodkomHjBv25891qnO3uTKnffh8BxQc+onj7qeehVOri8N3ZeT2S1DC16TJ1nYoNS58MAeNjJ0IUvcyjKTOUzdWuRYSMYEsebC/WJJusni8t261yau/66n3GSyXVfq3GTd4WZTZAcmtywDOFkntNmg0IEecNOiWMxrpZy+9ep19E4tMjr2pNtYlWQ3O15L1WRpebCRxVGT52ZXLbhN7tovtv45B2Yij8HpQ3vd74WjNHUkjj0VF4wUFJNp6Q7W8shkOaFs53PGaD+bjHDCOkG29cyimdn2e+JYyGTJWR4jqas4mFNh+cfBZIGk9+9YyIhO1hnOJNakvvHg8WpJe0gHR+BJKX6D63FJiZPHnvwN054YHZMU7+z5/evzNLxP39nTeeL2LLzzzp7a95Lu91Exmeb2rIOYbCQznz++Hgr2+tmYg8FBRrKJzxn3u/U0DPbnff3zZI1kA6XTZb9I/bpvjFWT+tt9Y7XB9ntndlPSVGlnfriRNfu6PI8IU4RQC+4XYdQESRL3u9ShQzmG7Zfa8/kj/knnuRFJc9UXrZxkE5u5qyfZRFvu1k3qr/aOqb9kwjqNUyN6Phx78reNQdhZnSWrTsmxJ/8z6/3YC9LmzT8J2iX7P0XtUQXqzYxjIq1lpf131toteh52Pq/Mn+x8XhWNvxpze4u+z7bRnyn6PttGLkx5M6CZMqLFtPi4w6bq+XxRdKu63hrP0bFuysadV1XXT5uX+Esqu40LIk3XTxtIy7HSWmN1XVM6b9zK37Sq27jyYBoPoSJIBGOtzhx7qul2rWM3JuR0Jei3juuza7zQWKK523pu3Nqk+7019AdskGRr3L1hI6gr5hOm+ueN/dtp661yt6Vm6hsrAdqY18algGX7pfBcIo1nW8HzZNn5UHgOlt7vLbMclN6/xx5VJjRfcexRv97WA88wz0mLyi1x1c08ysZDPGPqhgFY8FDv4OC1ks+R1Umv7KRn8zoq33rZKul1cx0jqzZaXbgucrHfwHT8bE34B1DIszGKXOVUcQwCke8wuTZZNdldmW+QTZmmTvS2DkDSfReJ5Sg1FgXQ/o+RnfJaO0uZNltLHT3A3EzEma+0bDnvypTRGGYiX5oJnVFUXgpAL7mbNnZDOk0Uxk1BHPfD0ERGrVzMHBoZB02VAXJV1YKhbjYxtQPAXO3UZNIBUA9CtnHeNWO0m22cQ2VeYJ62ljLmA7Kx6ytr32Qb9FhZQS7bGIGaUEYyL2Wm14Q1smwqFoVbs2NGjI1CwGPGuuAKk/CyKe4eAMaZyYaPsICuZ07KYvJXshEtixmglnuIajPFgll5spchpsWaeKI+TezJrPdD4XAt6i8GIOekFFtLA9dSRPBFAXRqHICO1eDRocXI8kFTJUDVPV24F6TYPV14dkKxHoTSmZRadU8Xlq8vTRPX579Q4aO0N8N46JgpTYWMS0MhsoiFvz29IxvAPFkdZFMx+CmmZ1X4Uoy33hSA+8Hox6UyT9YC6AOggLV0regVJvwXH7BVmPY6bLZO4ZyWaZiWwoxoY5lE3pCWxtBewZKv3PeiAOS+T000lMyFcGtqKzxW43n0fgISl859EhTXkr0HobAnUJZmC8uF8G9TYMuF8G/KNJllYIpRd4NfzM0jyQD4pa2BPm9M6RXzZvKF8G+K7JllJIvJ0OfFB9k2dQ9WtqzG6s7Mo6pJpZ0yi23WZPIhC4/7mmy+6OSGMKsF5cmtTtn0ezgAr+ZgHQC5DjWb6g03PVdzsDLLtdX8Zq4lBX7VHKzMFbxqDlZmf+k5TusFgD/aih4RndK/UE30hafsPUPVFwB2SVelH2fOo1cTMsgdT41oVN0KoJTXAYiTmC+NquZg5cYdxlZsyJe+U9OtiWwN/YZuOkWcro9cj/0GbCPtyurOlzZSa9zOlzbSYWpZlfuwTfM984SCOuyOq6jeUF0EiQfO1ak0imD004ebykPIzMOp05TOKhKFq1UqMku4V9Ooy1zaqMbtztzZWpf2MGfucqg2gDHSzvRabTxiZjpjteGFmXWJ67bVyiNvQrJiK4C6fqpJVseUbtbpkDR2FBiIY5zsBspIumpJO4wzszJdayQn1nyxxrzMs4paViJ/TqzukzXlFZUhlqFRRzfxW7IGSe61jcqhjqAnKlIzmfuLcpVL+2BpOSq30qvBEk5WSWAX99gL12Dx++zK7WLqf+vGtcdCX7PJHhfqg82EHqyJZZrngzWDpnGBMbXXbIgvO23NTlNuoWxbuY0d09bNTrqGUVg37mfDaKGbHlHDS/nY6wBIXG/duokr5gu6NbxV3L+96Hqr2Ipw7GW9cWqrV0tXsw5jtVQYt9aY5iFf9yGqqM9Dt33vNsUaL/veNeznu75biY6pDy5smZE62adSE3iWV4hz6vPQtd2NS8JUv77U1+c7uG89TxKv563yFQm7MUO4NYk9Jb+GdW/yvMOR9b7g+3oYdzJhlOySuwkbxEdVB+IqG9zt77OUcdbvS/yI0fx74fN3zcMl9B/G0Poa5yrH0F7Ay/ey3s2EIVOIbuv7pPv02Unzsj7p/ZtIcLoJmdvz0H6fSUk8F/usxZOr/db3ifZFc8sXexvscbWXiJVbi2fTGPpi3zWqT5grmd1/L+r/D+29Tkh9m8PXG7VeT/Mnmcg2p2qXJFSfm6ZDmzBbFbMz9PsildMmJSVMJ0/zJxNWfZf1QnGQumywAFMPo1Nf7alVbBnNLzOVM1umAP2H0GOQqBzTYKEQoX+f4rtlXPvLyKaiRRJWmAhdD7Wn/bgsh1yw2raqcSUwpbDe+Lf4e5tyt1l3ZDVNirCYXUyD0viC6sjLuOQVW/WOvTwPi8UsExO7TIIytbKG8WboHgk3mZ/fsrTcOh7aUBovUwIo1Kr0719mnAmXufPkuKm9U4Op20v9PaaGHnuJZ3l40jLRPia3LosvuLQW9tILfhuUp9oYfN6+scfZgG+eh+KRsC9ij9PcrBY/sfV0GbGQJaOXabFMzL/5HMGrvfbiY/y+lmkVYH5jWTlgYj7nbn/+j3/+5Y9f/vwff/v173//1x+///afP7/+///22+8//8fvv/3XP/76+Z/+9ctf/vnz+V//Fw==);lineShape=1;" parent="1" vertex="1">
          <mxGeometry x="260.0007098515909" y="-80.00380394635559" width="477.2718943989489" height="286.0820548527867" as="geometry" />
        </mxCell>
        <mxCell id="wEqpazZtr3Mc7dN9a1HU-19" value="&amp;lt;&amp;lt;Value Object&amp;gt;&amp;gt;&lt;br style=&quot;border-color: var(--border-color);&quot;&gt;Nome" style="rounded=0;whiteSpace=wrap;html=1;" parent="1" vertex="1">
          <mxGeometry x="-310.09000000000003" y="-221.95" width="120" height="60" as="geometry" />
        </mxCell>
        <mxCell id="wEqpazZtr3Mc7dN9a1HU-20" value="" style="endArrow=diamondThin;endFill=1;endSize=24;html=1;rounded=0;entryX=0.5;entryY=1;entryDx=0;entryDy=0;exitX=0;exitY=0;exitDx=0;exitDy=0;" parent="1" source="wEqpazZtr3Mc7dN9a1HU-3" target="wEqpazZtr3Mc7dN9a1HU-19" edge="1">
          <mxGeometry width="160" relative="1" as="geometry">
            <mxPoint x="-100.09" y="-121.95" as="sourcePoint" />
            <mxPoint x="-140.09" y="-141.95" as="targetPoint" />
            <Array as="points" />
          </mxGeometry>
        </mxCell>
        <mxCell id="wEqpazZtr3Mc7dN9a1HU-21" value="&amp;lt;&amp;lt;Value Object&amp;gt;&amp;gt;&lt;br style=&quot;border-color: var(--border-color);&quot;&gt;Código" style="rounded=0;whiteSpace=wrap;html=1;" parent="1" vertex="1">
          <mxGeometry x="-160.57" y="-221.95" width="120" height="60" as="geometry" />
        </mxCell>
        <mxCell id="wEqpazZtr3Mc7dN9a1HU-22" value="" style="endArrow=diamondThin;endFill=1;endSize=24;html=1;rounded=0;entryX=0.5;entryY=1;entryDx=0;entryDy=0;exitX=0.5;exitY=0;exitDx=0;exitDy=0;" parent="1" source="wEqpazZtr3Mc7dN9a1HU-3" target="wEqpazZtr3Mc7dN9a1HU-21" edge="1">
          <mxGeometry width="160" relative="1" as="geometry">
            <mxPoint x="-90.09" y="-111.95" as="sourcePoint" />
            <mxPoint x="-90.09" y="-147.95" as="targetPoint" />
          </mxGeometry>
        </mxCell>
        <mxCell id="wEqpazZtr3Mc7dN9a1HU-23" value="&amp;lt;&amp;lt;Value Object&amp;gt;&amp;gt;&lt;br style=&quot;border-color: var(--border-color);&quot;&gt;Dimensão" style="rounded=0;whiteSpace=wrap;html=1;" parent="1" vertex="1">
          <mxGeometry x="-30.090000000000003" y="-191.95" width="120" height="60" as="geometry" />
        </mxCell>
        <mxCell id="wEqpazZtr3Mc7dN9a1HU-24" value="" style="endArrow=diamondThin;endFill=1;endSize=24;html=1;rounded=0;entryX=0.5;entryY=1;entryDx=0;entryDy=0;exitX=1;exitY=0.5;exitDx=0;exitDy=0;" parent="1" source="wEqpazZtr3Mc7dN9a1HU-3" target="wEqpazZtr3Mc7dN9a1HU-23" edge="1">
          <mxGeometry width="160" relative="1" as="geometry">
            <mxPoint x="-90.09" y="-111.95" as="sourcePoint" />
            <mxPoint x="-95.09" y="-207.95" as="targetPoint" />
            <Array as="points">
              <mxPoint x="29.909999999999997" y="-91.95" />
            </Array>
          </mxGeometry>
        </mxCell>
        <mxCell id="wEqpazZtr3Mc7dN9a1HU-25" value="" style="endArrow=classic;html=1;rounded=0;entryX=0;entryY=0.5;entryDx=0;entryDy=0;exitX=1;exitY=0.5;exitDx=0;exitDy=0;" parent="1" source="wEqpazZtr3Mc7dN9a1HU-9" target="wEqpazZtr3Mc7dN9a1HU-1" edge="1">
          <mxGeometry width="50" height="50" relative="1" as="geometry">
            <mxPoint x="535" y="88" as="sourcePoint" />
            <mxPoint x="665" y="125" as="targetPoint" />
          </mxGeometry>
        </mxCell>
        <mxCell id="wEqpazZtr3Mc7dN9a1HU-26" value="tem" style="edgeLabel;html=1;align=center;verticalAlign=middle;resizable=0;points=[];labelBackgroundColor=none;" parent="wEqpazZtr3Mc7dN9a1HU-25" vertex="1" connectable="0">
          <mxGeometry x="0.1194" y="1" relative="1" as="geometry">
            <mxPoint x="4" y="-9" as="offset" />
          </mxGeometry>
        </mxCell>
        <mxCell id="wEqpazZtr3Mc7dN9a1HU-27" value="2" style="text;html=1;align=center;verticalAlign=middle;resizable=0;points=[];autosize=1;strokeColor=none;fillColor=none;" parent="1" vertex="1">
          <mxGeometry x="280" y="81.86" width="30" height="30" as="geometry" />
        </mxCell>
        <mxCell id="wEqpazZtr3Mc7dN9a1HU-31" value="" style="endArrow=diamondThin;endFill=1;endSize=24;html=1;rounded=0;entryX=0;entryY=0.5;entryDx=0;entryDy=0;" parent="1" target="wEqpazZtr3Mc7dN9a1HU-16" edge="1">
          <mxGeometry width="160" relative="1" as="geometry">
            <mxPoint x="430" y="110" as="sourcePoint" />
            <mxPoint x="550" y="60" as="targetPoint" />
          </mxGeometry>
        </mxCell>
        <mxCell id="wEqpazZtr3Mc7dN9a1HU-32" value="1" style="text;html=1;align=center;verticalAlign=middle;resizable=0;points=[];autosize=1;strokeColor=none;fillColor=none;" parent="1" vertex="1">
          <mxGeometry x="139.51999999999998" y="80" width="30" height="30" as="geometry" />
        </mxCell>
        <mxCell id="wEqpazZtr3Mc7dN9a1HU-36" value="" style="shape=stencil(nZ3ZsiTHjUS/hq9lsS/PmtF/0EwtkSYNm9akZvn7iRiqluuedaLvvIkt4FZmZAQCcACOH/Kffvvpx1+//JDCb79/+/r3L//1819+/+mH/G8/pPTzLz99+fbz7+t//ZD//Yf8p79+/fblb9++/vOXv/zx37/+uCX3//qPr/+5/8J//6EX5y2mrZXC//zxL/3W+//9w5//kP/Hz7+8yo/bUPl//cM7+RZVfqJ8niI/WT62D/LrHzLIP37+KZ/o7/dbHSJfBsonfZ4eQb7dZhH52VC+hQ/y85YKysvzzFutIF9vM4r8oPett/rx78dwS7Qh6v3/flGo9AXKbXRVmLRFy63mjwrxlmlNyy12VcBDkPUQxHSL9A75Vroq/Os7vlOI8g75FmhZ0/2JXxQKbYx0K1EVBr10ugX50uWWaWuvRQyq0Ok7rM/08Sw8N8u1wmMjvCjgaXtstYdC4+OzNnNUBXqHdVrkFTral3krU+UH2K9lrutH+WUw4Xwucx1VfsLfH7cq32ze/+WNfPoon8ItgH3p919/kW/wAfqtffzCKd4SvG/XXb3k6X27rmdaBxPk290aPuTz/cJ6I9/kfcv9F9/I567yE+WjrH+9f/FL+ar7cz8hrGfV62+tWIXvVW/5o2Xc9yWsZ70Fed95y7Dfyv103OXz44S+kZfnz/EW4fnL/aZ4yCfcz0X3z5Kn+zvrdZ/Z6uZbl/ddKwDrk/Xuy/X+F97IZ5Ff+wHe1+6lzPsh2fsOvJaSve+8Xwpv5OvHv1/WfoDnT/p9S0R/8XGvv8iTP7p2y8fnL4n9J3VHS2bX49blfcvdQr6RF/e7rBON8mL/S7vfUG/ki8j3+7+8kc8iP+478I283C9l4veNag9rwPMe717VQ379C9iTcLfGL/IDnifofVHX/QLrGfS+rhnv33Dr8jwF/Y1w//WH/LLAsD+D3l/1ESC8kRd7W9t9x76Tl7/fMRoI9+jrIb/sCdjbcL99HvJsT4KGn43vlyX/cf3b2j/4/HI/LnkKZoKel7YsJP799HF9Wj6sp4SHraA/87CuD/mK9vNKnvxbl2/3HfKd8v3wvVye8AiXH/cd/p3yE/3VJd9VnvwH+749oP8W7tbgIR/RH7P92RP6q0Hv0yU/+DwKHHTan0X+fjmsZ00qP1le1rPeGj5/k+dp9xX7Pvu85Ml/COqf9473e1D/qo97BPHuvpPnn7eA96Pcv0u+w/tGjV9GQHsS72jUQz7ifWT+z5JHTOF+mh7yCff/2u0C9+V7hPJGXu6XkdHfTvfT+pAv+L2S+hujon+SFV1b8hRfZz0v4wEYvpGX+GvJU/xi0NroeF+veO2jfRjjFjgerCpfMf7V7zvwPFb1h8e8Fdj/VZHBJU/4eNN4aob7ir2RL0XlK/79bvID8ZbwcT1nvAPsb+TF/i95iu+67v8lT+dlqH8+HxHWG3l9noT2edyt2Ys84T9T8YolP2F/PnbLQz5jPLKs61D5woim5D+WAl1gGwKtqkAe/QZZ5RcKh1R2B8zC+Hu8u7QvCpUU0h20fVEgrzgmDXuWAqaVstqtWe834TuFVlUBA+FiJ/8QmRcNxSZDO7HeP9OLAu3VpSBg62wIfsWm1nQpYB6kaUpgKWAOoSv+vhTwPHQFkJYCBdBxWIKsoYe/FHS3Nrxi49QYcSvQKs37Z3pRoLTG9pLtw6FCNDPW0K3bOJKtEiqki2U9KIzPPZLl1E4Kxe62o0IrpkBgpOU2twLspaXge4ng+50fsBNH/tdSUOv9yDhfK3T1CGfHCGFf0VMVKGRcCmoq+z0KvlaYCsLOjhfKvkWzKhRCtS0MXwqUJl8K3RTQz44auC+FTr8QL36BPLfsJ67fJmzvbFj7ZF87Zw0GtwJs75zNagz0JrNfigPzs0tByyEG+nv5AXe+KNA9nS0DthUoY9PMtg7eS+1+778okAuXu524gUmDpdCSKlBWIg9Nay0FglGWgl7s8440XCtMc+EelUjvFNRUToyUikGzSyGBv7QU9Npl7K7Eu1F5UaBkxjN39KpA75DMGE90f0q2O26i5VsKuvkmJnxKse09EaEtRSuEtgKlYOv9vnlVoHeoChqcFeYwBUIlmoVxR4Xh70AK/b43v19Bw4GDwrgDR9+voL7GYVmHgQ0HhXWCP/fhpqZ/zgrDNx8oVAPwzwrqJB4UoqaIzwoXm48Vxud+weNp3ho7ienLSgrZrt2jQv3U9q7l7rt8v0IxY4wK9bO/cGmXSKFdWT5WcOuNCl3Lfc8K6qwfFIYhJ0cFxWYOCvOTprI6qMYKLdxBie9XuDAzpGB1E4dbdKeJ/TuA39qSItf7Yodrt125DuScLIVmq0RxXCsGF7ELtxT8wxH626ot68B0ZGtmjAdiM0vBQxpKOLRuoeXACoSloG4oB01tmJnpWFPQrOZ/ctF/m4aSdyxf7la2sANwKsMMWge1MQGqI7VCpQ1TUKIi2Us3zoR4eNzuYdS1gtXSHbDKpTDtkSIVt1p2bCO6tKxVy6Emp7e7Q8AV87e9metQMY5bCuqcFMyQ9W5RVsET1x2QKpzDGpqknxlhu36V1aFVGsEc3YTx9FIYQRXIhRvRPON0//bXCskSRxG3xlKQ1OaMmBIZ2R4pIHw6in24gMVsS6Fbdpbg01H1Yl8KlH9YCnJEx8D629EsoT7wUhzmka1/6fQLXY3x/hOkMBR63A9JLz0sqV6xyHEv4lAFygMNy3CsT0nezNoIcrEPPqLTwJyRMZe1NrO+Q8JK9BltlSLiGjsTLbUrAbM0007cMjwE9m8rZNU6VC2y7ZyUJw3E7qe5cJ2x+2kF+L1hw8os6uiuO4kqRnZiVkrcCiZS9xVoNWhUQzetJ64nvLLWNa5VUxGr+p45yhcFOtPPvNJDIWDdzrTCjuXUEe69UywfX7oxjP3MmDwUOrYSbKdTak8bJrSfbu1DoWIOZVpz6I4o6BeGledmNMZzaH3iirvISdzhhRT0HqzGUDd0BZsUxz0jnrvCoeT5Ce0/FAbvpan3dOWM37QEXuXCgifw/lAomMvaoaq8dMaKkB0MS2F4QvdnWqdejVh59cTcHgqBLd/UrbF7HfgXBJspA33vrfBxWUvn+8ECvw2d8yrJmS4F66unYTMlY8S+FMQz3h02vJekpWKnYfil9Rci9t5OS00VbjrxVcrc9bYVPj7SbqPil5bsQD4Y42mNYw1ThH6AlkLkZZV7Ole2S9brmrksbA5Nr+3mOrbe4mDljAntaaULOWElwjNX/FCI7GsMhYvyYfMNrejOj8Tnu1tU/NY0+ZEs05S4Zny7DtI0yk3K02Kg1LEyZ1p6bReu0i80TUKmhnW803gT0sHXqFpos2uN6TxUTRylgtQS04LXXY3Nzrr4S8/y8HcK+qUP3kzRe3o3QJJCVlc6cT/KUpAGzxT4fsjq8+0eFfqFpNY7MoiwFAT92RV+9NJJ0zqbRYUOkFXbRcaMNxLjNAK0NYJ+h9j5iFpjTTzcD8EYLBqmE8a8B8MPhYrR7rALZSmQMR7mGcfCuMbQO25TXhBs19WVjlxcvRQE0X1ShbxT0L3EuMbGeoQxIqEnMKx+KTIQMqxCKkbkLBjW9L8UqHhug0NVFehMbyQxqQJdWSPbdwjYVzSSfenARBlJYezIEfuw1vClQOV5w+hTJmZ1Nvok+Cy6V0te8654GPq0XALePt2rQTijM6x3DMvb+9D8/UA4eicelJqJCsO7cYNwZWFvBkYjaNqrGsiOlby96npyK2EvBkJxzi7r+3Z+/my9rmgmelJnm+GhbtwL3DrcLQff0HHuQR2Fhq3GS16w0oY+apvqo3Jyrw3jIkBIfMnLfqtMddONKwCvpiUvZp3ju9bUInLS4Nk5/pQn8KJV447A274VLaYpCM+3rFxGHJ4uefFXCqaHN5IoXB+YEm/W61qwdXXJS6kbIy/NXMCMjkSdWsGemQrIcMiM2fBdaSTBB56X2rUgOGGQWZtCIgkrY2tVkCbhBV+LcUnh96rWvxLRP65Zv29ELLsmzddGLquyXuyI+3kXPgq3GK+PFZFERDfL1PPCyEmZWhAbcP8UiwYCtz4b1WTArFGxXtqA9rw07Zhil7U05V4IeJ9uqLeqPLViW7ljQES9WBgQEGwohk4E9MeK5SoD150b1xZ79MX8mcCt7Ulx5cCl+UmTUZz4KVFBsaN8Nnnujxi6Pgf5rPuB5LOlAo7y6TPPk4fGI/y9dhOMPT/Y/82EZvsH9nNu6j8EtLdLPqs8nZdcNbnP53fJR7M/9L5FyTQDxl9LXvxzts85GzcmUg09mfde7hfqu0qau40IUG0mQL2PcP9EhS4j1iXkqGlVLsjKxkUTuaMwaKleRCqmCy5TxLLS1Hj5QJU31Z9h/yfZ+U1YPZws3mF/LFl5QUJ8I3leBO1DsooKBtd3SkP9Sfq+yZrr06k1WHDsjPjS5ipReUpwpKqJpoz1gs41mrktuOr9lTF+3+GipAcxBeTcMgzNJutFzUyN6VyjvB+sOZZrU3Y4p++LzejWrcvx4HP5nvLYWZ6NSxOL+Xc4p/E47jejwC5sH5LH+9QfesEdiu2hySpsC1OZXsTvFE89zf2LPL2v3UcF/ZN9HSaVp/1g91fBJoFkNf8F7zvnrizMxhDUf2Dq3BSUL6Xgft5pQsWjKD6NF/geUp9aVW1l6n5rqWaqzmj3L6cAo8XL/cSsIvu5n4hVZD90tIdbPqs8ve/QqpvOLEPD8Xby9/aoC8XDKS0czZ/piHddyeNIAOvJb6fRG93w9sP3iirP6z8U/6e6k71/ymf+/lR/6fD8tv8P62PcXx3vry1v+ZHD8+j+PNiHoPv/sD+nPs9h/0vvw/F8DbUnh/OrNcxH4iV7X97PTe0JUmNenC/yBy7P4+Hva/6I8Mb/h7xyTaM/4Pu58N+fGr8U3g9T/fmC/rbTXhWOF4y7uGAlRLJO/YO/alysTNXvpFpcfZisaCcjfuvc7PnE2SX3F7c5PMP7F3n2hy0eRP8w2awB9B+2f67yZN8uZgdwfJfUvmWmYs3qH2asi3n+uZd4ltbT+qkz82hl35+UX97HQ+NrjPeLzfJA+5Asf8pU0Klo9W3i8+KzQrC+ZbvXhp/QfqhaT8IdAc9JK9+J5zRd/8T4gM+CwXxBstb0xHiIUcMl5NpK1smeeHRGVzyEqVs3/qb5Sur5eE5ue8EzWb5ZPpTe1/wrrlJLVhHP+dM0bYoY1v9mq7+KzFwW/H2RGi3q/oxor3K0klDsesjGfhVxP2x8XvNTdF9nmzXD+dZsBJKH/IgVFfLgumz2MDBxXNV+h4DlrDu/o++L1N3N84lUb3OVn8L8izFHBhyFsfNrmg8l/+0qf4f5o4v8INIbXuQfkXr8Ir95kLf8Kcpf5GcP8pb/RfmL/DLVU13lr1E+a3NAwPO+8+/2/FRfURRPDogPX9UPkH9VjCqSz8uuf9D1TLA/i3WM8Pm9qt/AUWkX9SHITtjV3+BGomJENTzqoQy351ifMC/sLb2vtUOyfa426yQg9U+1WVF8v9SoeGNAzo9qjE2c765WfxIxX1aNuZGp+nfLrT4P+T+7/k39AcovV+tMSFjvXb2tDNlBqs+m5NEQhm9zvrVa2yfHU82Y97kbqxllMNdP7vpPlafv1YzEL/Ooiqz3XWaaKZt1WHA/N6OK4PxaM7Ztxpea5aML4o27Ptnqgak+tut9UbAeZskLPlOxR6UNxU94JMGuD7d6bKofNryuor3twbr6sR64+2w7ZlmK1qKP8WC3AcUNOTS6zeJpeJ92Y1dpmD/t1uvIo4O7za3uaE+6xQsHyjSrB+vMo9XU/+z8/E3vC6ah2/01MhsI/bFus2AGcjf1cTG6nZ5nan3FQPxz9zfpKHmqlxuGV/Oo92HnZWJ8PXzuCp73ETW+m1ifNqw+fOL9PrI14QUEKEfWBPlSoIqJ4R4Nl0QOK1mMgfszq2LcMeKlPaoGGUuBupCGTYCKEdOQoymZe2TcbtODRVXADtBuDZ08BG3P6KqqQKZxGGXl7pOll7ZccCyYDBhTD0MsaI2GsX7EiunFGdT9iA3t9VIQfD/yaJrpDRN8IziH2VJASgErIVoKyO+SbLfy/NWZ7EsPRPE26Zm14yPfUVazGnmE5sxGvMCB5TTg75nqe6cgU2R36MQK8h12bMMcZlJrlXjO9J5GJcWqfET3cCnJDvDk+umj6Hko12ZHFYXKX7rphZsOlDNNI6KDCzY9xdGxBm92o6fgkSib9GyqAmUhpnk96UDcNhT2zIyjzaF9mDmcaNWUBYeRhGmVWjmdCJLE8mWuZX4SST8UMhYnPCd1PBSY2mHa6IGN1/MjyT29FOgGmja1KDdMcE5LIGWu6NkKglgMhOyWgqTkNqjOvyAnblNhkZmZmhQqPIA9hqB7o3Ce8OInjptJC4/ziQtLlqlwKc1WkFKaiv7PnIrlln5i0JNkQDkwezqJ2fFTC1xfuf/K2ecqN8T4Caqcwb+g3DuSyUkI+hzy8NZsyDs0BLUumAw5SndLVnmi85zKCFN55M+mSRNcIjCzpxXqtchkcnZBNIZSN4e+QCuZGZIMC2sMtm0qUCkmreyHdo2OG5ffTYPz9mh5+nDduEMZQJg2DLNN5qxsNh2cWxK3hyUQUWR+u3Yx/52KBvZEUVHImCV2P3TjakzEJp5uL2wEzJfuB6q3YoXhPNBzxwOCjHVMTc2s5r4PDuSsF6cz+DOtWGLDUwfWM6O7pnTN9NHrDGxMo7AfB0pWi48HD0uewaZ5H2Ia8zVGQU9g2IUyeKrvBjYEdGyM5tiE69HQ8g2LOAb3bYyuuP4YTDDfFFUbA8PdYfPXNpfbgbffFKgXYE8GECyUt/dzI7woIA2/D6iKuJeGD7iNDFYmmyabGD+1Bq+ZGIYLmhGbiUGyq2njyHFl52GbNgbtdfAFV4FvwnqbJ4I0Xd3mfrGz3q2OYlPOE/FWs1mvFSs9ndlrVl4lH+3d8BbtxqA3D2RX2eZNNQyod3asqQKlB/Z8HVHgQcN7gk9VBQLJerQjyh0jyzvSgTwdS+a7lZBsdl3KEU8bNTN4otW0Lz1OWV81AkxD18zR3d448XB1G+7E42db08BvMgbc2sUoMkIR9tyvpAqJ3qGYmZmIYzcrNnvStV8rZJu5y1fWnr9mM+TICFxOeCPn5HKGHDLMXU2pw5KPqzl4hGtcTtojhctZfgcFnxaIClfzCA8KPvEQFa5mKh4UfGojKlzNhTwo+ORJVLiabXlQ8OmZqHA1n/Og8MlfuJoxelDwKaaocDUn9aDgk1hR4WrW60HBTeVBwefVosLVRNyDghLVhUPpso31/Q4NJbc7a2ja/KRh84+/Q8NHLNNSXQ5xRoWrMdEHhc/Zy8tR1weFz+3Ay3HdB4XPGafLkeNUq3s51Pyg4GPTKUt9OZid0hx79Lu9A7kDl8PlCXQtVmD6HJXyTkFHN06mKPQxoBMR/xKM83oi9JAtzXHw47KxahyGaecr/wF54zyCnQhjZWusmzzFMBsz73aP6aVtXMZz5tM7BfXYB564XO0XBlZiZev+fGaVrxWs1msO5kcrxj/OMFbO5sdx5JSNAekwPDgnG7w7mOPQ/YeBcX62CqDJ8ypz1HKbOZDWIgeL8wfWI2RzB2ZH25quxhOT5UuWY3uWZVwrDHNpeEjnswrkRYFQqWSDIGZnNqdmwRzT93g78XPE37VCNVPJqctkBfnPjNW1QrlYVtpLySiQJ0+eS9bjeVJwlPaooOfhoGDDXc4KavkOCuGTL+3MG1uBqa/02u3MfWUp5HkkS3EjgHUhNhZ3HuhSurYHHQaCR4exGl4oS0HRcp4gHqtdKA3TftHKk2djzinjKJwNZ2MvBZ0gzlWu0VgsNpZNj5TN/am8Sh5UVyaWSfalK9ql6JdiQW8mGlXe5NrHaPOXJg+tjZa6nMwmGH3keOGRsnZ+DtPFDO/PnNM2dCZzcb+dBaY3MTaIPdiLsHtNgM/E7U52chInprSUdDJ9rrFx7PQgyuv6RG6X0+kHk+kUHBFkuvWq1YuHjGu1id4cTFo39phYmlIUjBmD6frtecbh74srMjrC9VlzfIOdo6w15M80+xt5XR8e1Wrd/DvJDlbU2JhGwaKXpPt/d+sQfYoiWyMzHaV6FCPhOINo06ISVlBGPS+DS6GiXvaDxx8EY+Pj3Eq4GAZP3rixpXae3x00XO48QtAupM4+Y1D2gt4wwAla4de5XTTofusVIYugxXSdC8Ct9GFPjcfn1+lbTJ8VjF2S75eg9rkzHX3QPoLOBS5Bz2NjhNNKpdrE+8jlebyay3csJ/PnZ3vr8tzea+vZuGYj2HSyiv5YsG7mgvYnqP1vTMcX1LFvCbFZm+fZ4mE/y3lZ8mRvgzrpLWBkYtMMKqf8g/qHdWDUYPandmzkDBeV4WwftLu9YvhpbNaHUnVjm6jlsP+12J6LKe1+2clOfB6BATc/Ct931l5A+Q+r3akB/Y2o571MBknUnpfB9LDGTtGRXsDZ1tvB/5H9U7h7LirgXgruZ2MPLTyeIGpKthzoFtV+lgN9n00P4PglKdxZmF4s6fpk3g82bSAPRkc1vsudkXm1n7nxuBmbJsFFh9Zsn5muP9v7sv+TjY2G7xcrsMqRs5E2fYLtQzF2zENO2CaVTx7PZ3PHeZyrlawltg9V0cc9v4XolTQ/kCqPp1R7tSNoKnDTgornvJE38oIPHMbH+PSbhP6Pt+4yXZVN6zrQc3WNlw90apYBipzKtlKQJU/+j7H7R/afrU0scuWpdbpFTkhZO2A84O8WIMXDhWce0GFAfAyay4k8kXZzexjLBMXAMRqlAweRezK6PFJGqxWNpDFmZr03VqOYsU8nWt3I/hP04bLtDI5Uow1W3BQnpGBM1ZFHs20yEK28wiaxpSDoUeQeyJ1pyaqAiZNqSTieRlEV35mc1GiWw+bP3DTBPNAcLXnpDRkYDsSu0zYHNsbG7tPG8TB3ZUPq2IO6rZtOf8BpCMPZrtBWGLtUx3bpaI0tDEds66/yuN+sUeAs/6npM1P9s45ESHsaUVJ5nkaRbP15GoUkiDu2OVzK8/va85ymL9k0osP62H7m9Ym63/D8TsMrOVk9NZXcMTw/y6//8euPv//0x3/89ed//OO33799/fuX1///r1+/ffnbt6///OUvj3/67acff/2y/ut/AQ==);lineShape=1;" parent="1" vertex="1">
          <mxGeometry x="-381.39458619104255" y="-259.9953081453463" width="524.7705764807213" height="230.84200853982588" as="geometry" />
        </mxCell>
        <mxCell id="xoQxYvgc1eyN9p1Y89sl-6" value="&amp;lt;&amp;lt;Value Object&amp;gt;&amp;gt;&lt;br style=&quot;border-color: var(--border-color);&quot;&gt;Marca do elevador&amp;nbsp;" style="rounded=0;whiteSpace=wrap;html=1;" parent="1" vertex="1">
          <mxGeometry x="-179.00999999999996" y="160" width="120" height="60" as="geometry" />
        </mxCell>
        <mxCell id="xoQxYvgc1eyN9p1Y89sl-7" value="&amp;lt;&amp;lt;Value Object&amp;gt;&amp;gt;&lt;br style=&quot;border-color: var(--border-color);&quot;&gt;Descrição do elevador" style="rounded=0;whiteSpace=wrap;html=1;" parent="1" vertex="1">
          <mxGeometry x="139.51999999999998" y="160.00000000000006" width="120" height="60" as="geometry" />
        </mxCell>
        <mxCell id="xoQxYvgc1eyN9p1Y89sl-8" value="&amp;lt;&amp;lt;Value Object&amp;gt;&amp;gt;&lt;br style=&quot;border-color: var(--border-color);&quot;&gt;Modelo" style="rounded=0;whiteSpace=wrap;html=1;" parent="1" vertex="1">
          <mxGeometry x="-110" y="260" width="120" height="60" as="geometry" />
        </mxCell>
        <mxCell id="xoQxYvgc1eyN9p1Y89sl-9" value="&amp;lt;&amp;lt;Value Object&amp;gt;&amp;gt;&lt;br style=&quot;border-color: var(--border-color);&quot;&gt;Número de série do elevador" style="rounded=0;whiteSpace=wrap;html=1;" parent="1" vertex="1">
          <mxGeometry x="69.99999999999999" y="260" width="120" height="60" as="geometry" />
        </mxCell>
        <mxCell id="xoQxYvgc1eyN9p1Y89sl-10" value="" style="endArrow=diamondThin;endFill=1;endSize=24;html=1;rounded=0;exitX=0.5;exitY=1;exitDx=0;exitDy=0;entryX=1;entryY=0.5;entryDx=0;entryDy=0;" parent="1" source="wEqpazZtr3Mc7dN9a1HU-9" target="xoQxYvgc1eyN9p1Y89sl-6" edge="1">
          <mxGeometry width="160" relative="1" as="geometry">
            <mxPoint x="30" y="120" as="sourcePoint" />
            <mxPoint x="-49" y="120" as="targetPoint" />
          </mxGeometry>
        </mxCell>
        <mxCell id="xoQxYvgc1eyN9p1Y89sl-11" value="" style="endArrow=diamondThin;endFill=1;endSize=24;html=1;rounded=0;exitX=0.5;exitY=1;exitDx=0;exitDy=0;entryX=0.5;entryY=0;entryDx=0;entryDy=0;" parent="1" source="wEqpazZtr3Mc7dN9a1HU-9" target="xoQxYvgc1eyN9p1Y89sl-8" edge="1">
          <mxGeometry width="160" relative="1" as="geometry">
            <mxPoint x="40" y="130" as="sourcePoint" />
            <mxPoint x="-39" y="130" as="targetPoint" />
          </mxGeometry>
        </mxCell>
        <mxCell id="xoQxYvgc1eyN9p1Y89sl-12" value="" style="endArrow=diamondThin;endFill=1;endSize=24;html=1;rounded=0;exitX=0.5;exitY=1;exitDx=0;exitDy=0;entryX=0.5;entryY=0;entryDx=0;entryDy=0;" parent="1" source="wEqpazZtr3Mc7dN9a1HU-9" target="xoQxYvgc1eyN9p1Y89sl-9" edge="1">
          <mxGeometry width="160" relative="1" as="geometry">
            <mxPoint x="50" y="140" as="sourcePoint" />
            <mxPoint x="-29" y="140" as="targetPoint" />
          </mxGeometry>
        </mxCell>
        <mxCell id="xoQxYvgc1eyN9p1Y89sl-13" value="" style="endArrow=diamondThin;endFill=1;endSize=24;html=1;rounded=0;exitX=0.5;exitY=1;exitDx=0;exitDy=0;entryX=0.5;entryY=0;entryDx=0;entryDy=0;" parent="1" source="wEqpazZtr3Mc7dN9a1HU-9" target="xoQxYvgc1eyN9p1Y89sl-7" edge="1">
          <mxGeometry width="160" relative="1" as="geometry">
            <mxPoint x="60" y="150" as="sourcePoint" />
            <mxPoint x="-19" y="150" as="targetPoint" />
          </mxGeometry>
        </mxCell>
        <mxCell id="xoQxYvgc1eyN9p1Y89sl-14" value="" style="shape=stencil(lZ3JkiQ3kkS/pq4h2Jdzz8x/UITFJqU5LEqRPcvfDzDsiMhU9XjIvHExy3CHAwZb1NS+5L/98fMPv3/9ksIff37/9o+v//3Lj3/+/CX/25eUfvnt56/ff/lz/dOX/O9f8t9++vb969+/f/vnbz/+9e+//7Al9z/957f/2n/hf/7Sq/kW+tZK4X//+i/pFsv//4f/+Ev+119+eyufbn2ofEL5an8/onyuIv+vB3wlH4PK0/PE20jv5ONtNpSvQeUDyscu8oPeN9yG/v1Ofz/c8hT5BvJl3mYV+TJRvujzZ5If9+V7yieWL7r+keT7bejzR3rffksqH0i+3dr75wm3Cd+r1NvsIk/fd8nnKPId9mcpt6Z/v8F5XPIhiHwdIJ9vuag8PX+6tSnypaJ8qCpP6x91P6wNDue9BD2/4W4wXsknXX+Sz/N+nN7Iw/ov+WDPQ/Jr/+v6o7zt/6N8+pT82v+flP/c+9b75/+gfLl13f8H+fipv59vxfYDyae7Of6gfFR7eJRP+TPyj+P6Mfk0P7ee6ZP7OY27uf+gfFd/4CDfbmN8Tj7Z88P9nuqt2vOD/UzF7X8B+7nksz5/oefPbt8K2MMln/TvV7C3yz2y/VDBHi55syeN3ne5L7qfGz3/2v96vv71B67lg9+PHfyH9b+j2tsBzxPn/fp84w/A/lny4f15jPcL8Fp+3K/PN/4M+ANx2X/19xJ83yWf1Z9MsJ9jU/sW8bws+TBEnvyBWPW+Ww417P9Y7p/zjX9Lf3/Zf/U/O33ffKtZ5Mnfi+k238sn/r4X8Uui72vxSEL7s+Szylf6Xmu7N5HvtP7L3Oj7Tnr+oPs/Y/w479bjKU7bbao1z/fr41J83EYRcTIO6yy+38sFY8ehpqTcEjxMvwcGT3HytLsGmuUeab8QF7+23gKse7t/xad4BjNrXmG9NRSXS67eo84X4vH9w7R7kHQd8+pXbfeY5IV4fb/jO0aMVS/QfrcQL8Rlv/fbpPj1ftru4gOv86LR9zj8dTkeE41rVt9lnV5amqwPv+QpObEO5/vH2dYKn0fvqoTBera7J+FOSOo7LutPyYykvkUsuD5J7cfz9nohL1tt344oL7HNun0jGfv7VfZGfpDxVl9teQ8F/76crOXNBLqsNPZb8rR/ouVuJlqpaOsz7zv8Uj7o/j84s0ENz8GZCrqe+4uAHQx3o/qQT+jshPvpfsjzfg66P5fBiPj8kovZ0Q7KZ/EtKibDgvkuDfdD0NhyGVtKdob7ffyQH2gPg+63bT/x+SVWX9E4nV/LPa1on6x/0Fgop9PfF/mMwZzLF0wW+vNXTEYG89bW9+X1fL/+uaP9DGo/87hnx17tN3n+ic6s7efCyeOguaSd/QT7Ge7W9SGfMfgL5hKu88v24f16lor3RdDcR2novJu9Ksu1AvtssXrh+yJoLLqrCyz/fr+VeRv4POLPVE5OLHnxgrl4suTff99dzcL9I7mYmk/rY/Jsb1W+HOyDylcs5rh8wyDkSp5iHJfvdw/zg/LjlnD/Sy2zTgwAg+Ymljw/v0SALWBsEe679yEfD88vsX1L9+jklfxUeUoGBM19tIzJnnA/rQ95tldRc81Lnv3VIO9b7x7OK/9Q1r9h8dlqt0u+4/PL/dg6J8/uX/ONPPmrUe+vNjjZo7mnNtGem3++5Kk4GTV32QMG7g9r+UaeiudRc3Od7W3UWkJPh3hEkk+d/e1493Ye8vnusbySnypP95HFX71gcSCqver1FvDvS/zSOY3zgDY85NvhfeW890e15kU8K+e3sz1Pd+vxkB+4n61WseQ5Hpfz0uc9+/kq3n8vPwLut6T+2OD8ydqN79dnRIx/rZaz5CfKSz5kpMP6y/cdGf09wxItebKfWXP3o3BxXr/vkqfijGEdRsX0cdbc92gITrF815Infyyr/Rkdi4f5Hj29kaf7Iqv/MAbGs1mxQWOiPSmafxscLxeNl5c8+fNF76N5AINorW4G9GeK2s95ABPdk69v5Mn/qfq+S74TuEzvx8nFparnfclTfrXpeVzyDc57s/VPaE+axkczY7GrawFlyR9KIvb3yZ53tVdz7Viu/xSVJ7DS0Pzqkqf8xtT8wOR82tQizVw76lCs66qADlO8n+83CujxRYXHLYVJj5TUJ54N74ylIADIpUBltWcO/40CWdGloMe4nWrQalfa/Wa+VqjqqCwFrEJXtexLAWEJTUOHpYDfoWnsOTvGhhs40E2BnOl+f4A3CghlGApd2goHbMUwBXqkqWXLpUBoiZ1RtHdIDD+Rcv1WIBcwmg3o7NNF262di1bJdmvHW2q7XfalKS2x/RD7BbpHLi7yzoW6anap482569H2DoO+dNPaw1ZgIJleJh2P6K5N2DsQtMShc1uBlnVoPuakMDVA3grkwIe7v/txBT8PVPLaFRB/B/JpkzkxA5N0jtjcCvQLFiYsBQxz/EIZHCcUs0sD77j8QGe8UaDM0oblmgIZgey+G9fKcjdfY6ARyMP20lIAU5ndvRp4i26str001YNKsDtu4C266z/yDhMz3CXatTtxL5WkOa850Ycu2TyBiUm4UjTLOif6S0vB34HSrKVqXLsUqM5QmhmBeS9FXSv0i5emTNYuNNmHo1Rfcdt6UDBg9VagYM+qbSeFaI7uQSHZxX5U0IDjoJDt2j0oFHN/DgruSh8Vhm8NUmiKYjkpdHMSjwrqGR8Uhhmyg8LUysBZQa8sVmhBc5EnhWhX1kEh3S3pxxX65x4pW8AxOf9RFGAwJyYMWzXnZGJGdSkM296U8m/tYmtQjrT1ixNHRcQ2Lk5cpJcedz/47aUI90OblsfhOms34MlkIEA3pNbhYu/xwpshR/dZWXqrQO9gjXMnhWxn+qig1vugUBQ/dlKolrA7KvTPKTQtwZwV9J4eWFPcJSZbVipS9XERcJBXuRTcu6cydp+WJ+Y61VJQj2xgeDwMmbQVwOcbVoqfA92fpaCewEAXbiQLwLk4sRSm/QJV50bW1s0dNIERGFaf2GEZ/ULRAsscnGCuiqjc0S59uHqR/aG9NJqd6Y6YptEvkmp0ZY2rvAbdQGPck3Rv03asIDiu2dAYj6lAz8ktAcMPEOeMd+EpqwLdcdNvoMq1AfeXKsZxS0ET5eXu+l4rJFslLq8uBcEjzIz4pvW/9Utn/NLrf+teShhaTis5HkpqS0FqsjOir7FLMvJIAY3A/kxWNcW9VHVZB5vKvdXeG4F1BvE7NDUzyyyQmdnlCa9000t3bXsZDA3caXF5h4LWe1shAQNwr9cz4ftQSHzihlITrEuM4Dn7NpB6d0C7tG+0oApUUH/eyneFddVTDeXp7DwU+MranrZhbrDjbipIfLlc1FE8pxqyzijxZ8TzUOC2mTn1jtuuL7+DAr0y3tNbwZBkh2WVK6tHtq1Tg9cesNdmTi26NM6RLQU5D419vguFjvCVCwUuQl4qEOBiv7QgVCsmyqdl4VYMf1pWaSbMp90qcdzOQxz2kqF4D6sklq8xLGUfIFE4XFlTr6zKSYRtBAQpz32Lzyz3Q6Fja8k0nonKLtyOqQR8XdEzfhYPHgrlZL216ZX7gbe5l3c4ND8PrYvWhLmZOTTvXSMiVHYhSh4pnG5RCTieie2X125TBVylrieucC1rBzDSVtMRpLLr3VMVCOe9Axhp/G5YsJhWfyiNL/au0MZSMcraDpb17hAW7In/eCiUk1cpwevuJqJHMiexZMwJTMtV7mIV7damB6gcXLh20XFFCOWNJZKtEdl6N62hFMbgbmddvnRAYMETQPVGgVCOs2qNfbexcYQiFfDMOM1pJDj54IZW7SzNA5G+O2jqqlD4F+TE7Xoy7aWq3yF3Pg9F0dBLgar406jZcuP4oeg9vRTwFi3WcNn4O2TdS7kiDGYalCdXXqWsmPelkPiRJOuQKwLPZtZoN3MX0DQY+8ZX0C8kvdiXAp64pGYmcyPTtE6FjRGhrRHtHTK2Bsyoyc3MvVjTiGLywRhbCjgz+ndau3tOmHqcwfZSwuLXUhBjnBOWpja+XFYpYjlhTMW3ZuYbWgoCFspMkLkh9V0VCPU4hgZNOWD8MIaGx5k5JsewI8p97EtBSX4ChmWja7S7FMibGV1hMGli0WUpKJfA5BRw12bAQ7P/TqGZAnkCw/ylxIXU0bQumtiVXgpyP6TBX9rAEUsBd6vhKjdKkX9BOSYG9sAP49vZREkQKS4FuR8Sg0l3U1BQBcK3LoVuCkTCNYrWFDcdE61S0RzZUiBM4ih6oaSGYNKRlXcyNSTSG+YJJI6BdjrWFLAOlDXKStx+O6ycsPlEaJWSvTQ3eA2rcCTOL+0GOdkaBfGtI6nfuhQIczKS2tbdNkUHKKpt3X1c1LUSNcrajWt0oUTjUeG8hlePUzrVpyU3s3sx6TsEe4fDxe5cMBETgztTb7+AIBXL6D75eV4pqNUIaAQ2TsD4kCip1ocmc+JEY9yt/hAHpin6UORmZP6z3bHbVIEqfr0baRcnmXtXzzg2rDT1rsY4VrStS0FCy83bRb/QjNSdrUa3Kn48kAU2oxLjVrduvM0xo7O+oTxNFRJ9uGpM+YmX1dollwIeoGJc8wld6aUgufsYMTze/fdJFSjK6nZP7xY7WqVs25t7VpeCRCgxoAu3cWTG8ke+d8+au5/8REkz8dw1v5FwUsPH26Qbrd4BsJWs1Iyw0G60egOj0B4VZ8cucTdah4EJkG60egz52ZVGKVaih7Hkxa3q/L2MJo974rpd5txpuOS13sWHMhitCaZ7ulE+N0w1Nmu7fYRZr+Tl+zLrUZtWJkLcTrOCesXU0CZ5UbJWMqPNC2PoA2/SGWV3pfO75I0NlvZDMxehoNfful4DBe1V8wIU7p/WrSqBd3EzqEtBA93MnSgIpWlN8/+F8dnNaN3QzVzymptHl641vS8yuuIb8y4JXt7/VWl3uOu/2YgJZh1p1mKSsejULJ+QsY9tydvzE8Kg2YiAzPvTRl4w62PLCn7MmO3ztomM+LYlH/X7EpCxJe2ByGxvLQZn1sTmyXj0f5oBKxN2pDajwTqwZBgN2cOBupY3WrrE58XS6gnLUktec0t4/9Z5QSFPI7ms6zjheVzymhHEpOYm6dPvReexGrw4Ye/ghrro+1KJbJMM6vcllrZq91dixvGuQXrC+6hapy5jbL2/LTHLTbdMCctbNHyUb5+Ulz7Jo/znnr9qFJkQg7PklRYZWUCrNZElrENXozFK6H/uHkwdqUH3dbW2iIj2p1oRmiEW1TqYI6Kbq90vB1Yli2cPI/WcVh7v35oVqhP5PGZtdOSK4Za3kXpkb62AHtE/rNlyFpg6qlntG4+4qTaSKPL+zBrfRR75mI1WnkdWGoQhYjy75W0EIr+vyRPKY8vbSBze//a+eN9drCfFR1ffC+/3i/1wkLf9hvf7xX6mkvzVeaH49+o8Uj7k6rzjuJILe0LAiyt7hSNSL+whJfmv7O3hPH5O3kZQHs5v0Xj5cH6LJfj5/BYfmUV40005oOeXaiBL3uwJxXe1qv8Z2R9uvt8oH1iNti8idML9q6P80POO/kBXLpqI+Zztf+r6U3xUDe578Ge6jTnhkb9GI8hTaepQf+ngj9nYKWYtrsMKjTxyeer6J2RN270A6m8T62C1EXmJ/ZOpfAGJ8wOG+krMeGAsiDxCrRmNe+L8cFT7zPFCM24BnuLRLkbAUTzYksEkMD5tycbGcD7K6jsMym7Z40fy53d+Sfcz5jey5osO+Zbi34vII5qx1WUs/DfHAXN+yTpMecrDzk9qPpD8gVa1Js9NuM3i2YzxZjPAemZCkXaRD6T1bOoP81SjTYmi60P+drPZd9xY2rrnDwlv1rrmHw75autvYfxOsxHQ5VRPEf+zHOs1Onkw0f60LtfC9tNAJjyFpA39XoXXf2p+tWADRrP7jll5d/1Ourb4fFnHYOX9PxUSULHhtgeNjyquz66f6vOTf9UNa8XUB93G6jQGigSlHecG4x69nkv3UfcxGEwpExWGy1ONetT37Ugz4viBjvvf8Qkd4+tuYwUH+qsbXyGd9lzf97EE6M90q+8wWU23+P0AWsvGm4r+XreRv5P3T9b6+AlAYwyLm5ibYUYaAQcMCTdzk4TkPDa6G1NN5KTUpnqKqoCsR9bRFXnS8WYFqKpA0/x6tXGWibGG1rt3mPfZjYcy8sCW3gxQVrD/cNNVVVXAzWdzfTe5OL1DtyGkFdODS0GYXze5OH2HYfH8wQAPZTKLHSPKbgiT2Pk8GAVdHHznGEZmKRDXwZ4EI2eaaVaXgnilcZ5IvcStfs5DvFQYNr4xHfp8vDAcmYgpWKUx4hHdfCgSyvEEsmEjsw7FtBGtGMvV5w2Pl1/gcGhEe4eM/siG+AdVIIdz2IV7QPA8iWzeKGCDVrK9xJQqwzjgU+WGFJu6sL1aeumsKKRTb4Y3pNTTO+g434r3w+7CkWVt3NFlldMNJeRf0PaphrmWUQxbwWDIYW3OiamehjVSH9zb3dFlCmT5hl3sqfMqGQnqRrDSO1z1vaGZsYH0aWAOdDQ7cezk7klPUxXwHbpV+QdbDeOcOHUHdjP3E4FVo6tjvz1p7qHUl558PwxLxU2mMzSGlFPj6LBkXEBPYFh2IQc290aIlQN31k3N/+bAR9Q6iXLkHvugFcw9VoHZCXUSMteEl4J4ZDmibZ02izRzODCjZdkSkyMY7C4zTmxGdXR3Qzt38Wubc0arMZNmVnLGUHTarJac8QDNpHHcUkByBJvBlwtWo6ZF00uBnPWZ9VLMPLVykz42VUDKLUv453Ii2lDqAh6MuYkwTQE5HIsxpFSmZCzKB5ob+nyzatV3KSBzU7Uu/s5ETFa3ztwXvWlhjFIFv4N5Ankwb4Y1mWUmBZ7W0J4HJjM3246s0mTiyqbZ88zpotn0fiiBv3TT/o6lcOBVkgJJ4ezPtBEHS+HADSXBa0kYDsymznrh3r1p/lLhKtvmtzIF8simERuXzOa+a52tHClKxVSWgpWbC56xig7WtGTOUjj8glwohZtfn4O4Hgods8VOs1o6s+10K98M5ugyXtbCXPzTCKbLxJTXtIRUDexrDDWVlTFfT/LzhwKDLpz59Qlje6UgF8oTd/tKQfIaGxjFpI9aV6rsJE4Nyza0iM60d7Z1NvdTE7R1MP+hUcXWeSIQFeekHaz3VK+yMRx2k6A6Hyi/g5jKxmwKcyrAoHEH0VZw1lT+0mKMD7ysMQQFBR6oX681cMTlhQZ3zl68xpEiV6BgbR5XVmqJTK20FYSqOHIIYd04neFXTsLbDyyl1t/aDzyoxnjbuYNzWkds5zG0c2r2sbcTGbKOgu8nAlvxHnYVg28tOaV9ctw01McaAdkLpvUhDQb6TgMi7tw27SVDOg6GYk2DUu6sLbsb+g6FA15zyp75yA86lqMh3GI7x/ILPJ5iO/hFFXBZqwI6npxuLwMtYSSYHCFXG4twYBP3CZSRmYeNinJyZWczSzZVwK3h8464z3QarmDH/TwAQ9zveUg8RO30nQz12TmppAroAQWb2XQgEg42Srdxwczuhx2rUZ55XkzGxTyz8Qc86ZFfKST7BUpXemJ6hy2sIOiF2Zk+sNlk3GNFwQckIY2jZVvmwDZALwWd5h0VveN2FMIVNh3mzhNZR7IZyDyRdQ95+tRE1hGNG4ZjvxFtauDgol+wIzoZzTNtpPFEz7UbWf5h5msfF7MVkcfIEJ1bgUEhOgWHS0Hd2MQnezMXg9t4zODFaLijgg6fOyj4eLuDgg/QOyr42E1U8CGARwX/0qjggww54N2jEv3DMVxTPYF5wrP6gFVqwGpD/aU5T4jiaL9woGhxI0Bu6MaY2yohCPlqDC12QbgLN7kNwkCDz9jxWiFfGAGqQ/qA1Tch9isNbaU8adjYs6OGTaI9afiw2w9oKGLtpGEje48aNhX4AxrpkxqW+D9q2L79gIZC6U4aNgT6qGFzpo8aNsr6AxqKFj1p2EDuo4bN/D5p+Fjxo8bV5HLyiC5no6NCN0dzIkNOsXl0kydW7AnyQRWorFeK9vBNBpaUorX9ZyL3WsG62k4D4dOFuSUemOIDHSfmqEq8uDIoV7gHi9ilRHd9Njr8g6OZbR7dwVnOPhyUUU3ZUE3Pwsa1gtGwHwb+LgXdGjyON9eLSc3EMLLxDvZIlEbe0yMsLKJSfc4X03VpL+Wr8dSUfVkK2qXBY5xy1NrNswx3rRAuphwn+g5BGw3nQN83GTPVScHAYs+JXK8Ukn04VPDpulwt3XBP/wVY1tQutgaVJnc7mX1pKhhs6LD/ApyHJ0Hi2+wLbO9kLTmHOcob820ZJCpJ7B5q+wUyAinad+iY70zRMnk8qTkFS0Qw0WsKNs+6Y0IoTotyOqI4olVJDsOjo/WKbgUqA3bzZjpmtmO3O65j8LibV6YqUKUnWv5/5zvhAEVrsJ4dj+hu8bGXppbvaP1gk1Ec0cZD7LoJbQ1jkd5pZFqlZEeUaXqj+d87s01fOmrhZnKjaQw2TL1h6i96rvAwY1LbkCb3ONjwoMPMb8N87MIP5fLtLBS0Sd28N0ZAGbPg5NZyG2q4oZ3Uem83T2ZqC0uJMPVo1er8ZBBavRhXjlRa9n0P1ILmUyVcz2IRA/PZF7vUmOqq2KGPeC8Xc+YDUmt6EBY4vNDkxOAsXLby9CF8USaGMTDGM+jzGEidZ01Tg28/yy/vIVQon5LKY3yn98xz3tMLeUnvDR5KmvR8DcYVJfu+3Elnd8ySp9b1pGmkwdSvyWbQM5WTd9Lz+UpaNBkBu1CTJl4Gg9OSlkz2zBl8Huns7RwqR01h7unz5C/q/dUZO2odG52b26KNbWfshw1R3FUpfB5hDugVz3tU+9C5bzMqsHuPB2F5g3JRhBzVH3gWpF7JZ5UnoHnU+7cz9WI0VFZAiLZ1C3celRs16mtchIk6LbvxfWEJuDawjGTF6sZxbrwANFJSxtqvG3ePBgUbblAmrL81dbWKdbZgUNeCNS1jYtvcXbD+zjTDPQFBA7HGzeNWamoJv1dQ/7BFvH+D+hstIBVMUHtVmVPAuvaeXICv5GUSCGerXJ7Df5dveB6v5On+dfmK9tDlmYrK5TPe11fyRJ3k8kyNaJNzakR/MhgaPiDgx5ifCk9hDcYENjENYUyNhROFwRqfGKppYLnCTXdWHylMtmJttKVgKtWGEBaGXhvUYrdh4fPo5ByeWRj0vssTIfbBeuEGxu/Behj74T7Svs2GOPBgDboV4zVrEMgFqbZdnkeruDxTffrz81DKoP75HtTMz28MAGwfnJOA4gVjnttUZrw/33/fneHB/eOsJHxfJPn75bCf01B5QurZ5LEdoaO8lLyeZYWP2ecDFXMwpg2m+vdJMsx1YOjkyPY/6v6JE6mkon6vXR/A+E4BF51bggz+wtQlxuQXeX8ak19siBo2Jr/IpDnGJxAZsJ6MCZt7ApMOuo4Z4/d0wcCGZWhjso/YMJ41XxojAmGz+kuR97NNvpqY3ihOREjZBCMRGIwoUSwQ122L4jQ7T03QpWfKNZuZ1nhmiwVSGIdb031lhlUtsFUGZ/o8RZxfqJuA6V6tlYDZZ7ti2zjjaQ1U7EAO3ZF8voc+TEZcytDrgYmUp3qbmfu6lVY1c6eLT8WiUGtPwf0MC3q0anrC1EqMPpUswfmL0VnlsdaY1Hrw1IPNfalTG8geRJviFxkLUDR3zKnsaFOouEN+j8zW90VXoflUFyyJG4UFh0LRyBwCuxZda72BC+hDY9fAqUibahc4NW0o+3ACh4gvHrg0YLmwgKXM/Xl0PYnq4rl938jT8yS9JAJDtwzMHhgmZVOQuDvXfYuAoYTXVsMJIzVVnhhZNruiPj+Wrpr64gHPy75G7e/T83f11Q7yw88jyk/NHRzl+2eeZ7PC6fdF+ajgq6P81P2J8ua7H+Sz+gIHeZsqe5T/3Hqax3mQt4bLo7zExgd5A7Uf5cen5C/sP8rb1J6jfPvMehbLLR7lh60/hSsG9w0MHTE8ccBm7nKx/8kfKDYFj0vnxTjkAkILlnxTe0jtvaWqvxcYu18VX8qURaXp1OnA3Qc2dYtJyMqF/0NQqHKx/ykVsNtY9H1pakOZPgXs0FgzzT+kiNewgIepmlb7jByAW237MFUwaq6QeWJqVHt1mHJo2JGIqexq5AoRU+U1WSsUBvlLvpv8YaqjTXHlqYhRvy+l/q6mWFJeoBrDdkQo5p66aPHdJ6dw0vmqhhWLmAu7+vsUH13KH9bH4mX++zYV7jC1VvbzYWpe9int5M9XI1pl6OZZfv3D7z/8+fNf//LTL7/++sef37/94+vb///Tt+9f//792z9/+/Hxn/74+Yffv65/+z8=);lineShape=1;" parent="1" vertex="1">
          <mxGeometry x="-203.3128810683013" y="45.04541188441635" width="507.90045655723156" height="294.090940651633" as="geometry" />
        </mxCell>
        <mxCell id="xoQxYvgc1eyN9p1Y89sl-15" value="&amp;lt;&amp;lt;Root&amp;gt;&amp;gt;&lt;br&gt;&amp;lt;&amp;lt;Entity&amp;gt;&amp;gt;&lt;br&gt;Piso" style="rounded=0;whiteSpace=wrap;html=1;" parent="1" vertex="1">
          <mxGeometry x="184.58999999999997" y="-71.94999999999999" width="120" height="60" as="geometry" />
        </mxCell>
        <mxCell id="xoQxYvgc1eyN9p1Y89sl-16" value="&amp;lt;&amp;lt;Value Object&amp;gt;&amp;gt;&lt;br style=&quot;border-color: var(--border-color);&quot;&gt;Id Piso" style="rounded=0;whiteSpace=wrap;html=1;" parent="1" vertex="1">
          <mxGeometry x="170" y="-191.95" width="120" height="60" as="geometry" />
        </mxCell>
        <mxCell id="xoQxYvgc1eyN9p1Y89sl-17" value="" style="endArrow=diamondThin;endFill=1;endSize=24;html=1;rounded=0;exitX=0.5;exitY=0;exitDx=0;exitDy=0;entryX=0.5;entryY=1;entryDx=0;entryDy=0;" parent="1" source="xoQxYvgc1eyN9p1Y89sl-15" target="xoQxYvgc1eyN9p1Y89sl-16" edge="1">
          <mxGeometry width="160" relative="1" as="geometry">
            <mxPoint x="479.52" y="-259.45" as="sourcePoint" />
            <mxPoint x="569.52" y="-309.45" as="targetPoint" />
          </mxGeometry>
        </mxCell>
        <mxCell id="xoQxYvgc1eyN9p1Y89sl-18" value="" style="endArrow=diamondThin;endFill=1;endSize=24;html=1;rounded=0;entryX=0.5;entryY=1;entryDx=0;entryDy=0;exitX=1;exitY=0.5;exitDx=0;exitDy=0;" parent="1" source="xoQxYvgc1eyN9p1Y89sl-15" target="xoQxYvgc1eyN9p1Y89sl-19" edge="1">
          <mxGeometry width="160" relative="1" as="geometry">
            <mxPoint x="459.52" y="-89.44999999999999" as="sourcePoint" />
            <mxPoint x="379.52" y="-59.44999999999999" as="targetPoint" />
          </mxGeometry>
        </mxCell>
        <mxCell id="xoQxYvgc1eyN9p1Y89sl-19" value="&amp;lt;&amp;lt;Value Object&amp;gt;&amp;gt;&lt;br style=&quot;border-color: var(--border-color);&quot;&gt;Descrição de Piso" style="rounded=0;whiteSpace=wrap;html=1;" parent="1" vertex="1">
          <mxGeometry x="450" y="-191.95" width="120" height="60" as="geometry" />
        </mxCell>
        <mxCell id="xoQxYvgc1eyN9p1Y89sl-20" value="&amp;lt;&amp;lt;Value Object&amp;gt;&amp;gt;&lt;br style=&quot;border-color: var(--border-color);&quot;&gt;Número de Piso" style="rounded=0;whiteSpace=wrap;html=1;" parent="1" vertex="1">
          <mxGeometry x="304.59000000000003" y="-191.95" width="120" height="60" as="geometry" />
        </mxCell>
        <mxCell id="xoQxYvgc1eyN9p1Y89sl-21" value="" style="endArrow=diamondThin;endFill=1;endSize=24;html=1;rounded=0;exitX=1;exitY=0;exitDx=0;exitDy=0;entryX=0.5;entryY=1;entryDx=0;entryDy=0;" parent="1" source="xoQxYvgc1eyN9p1Y89sl-15" target="xoQxYvgc1eyN9p1Y89sl-20" edge="1">
          <mxGeometry width="160" relative="1" as="geometry">
            <mxPoint x="449.52" y="-129.45" as="sourcePoint" />
            <mxPoint x="365" y="-100" as="targetPoint" />
          </mxGeometry>
        </mxCell>
        <mxCell id="xoQxYvgc1eyN9p1Y89sl-22" value="" style="endArrow=classic;html=1;rounded=0;entryX=0.5;entryY=1;entryDx=0;entryDy=0;exitX=0.5;exitY=0;exitDx=0;exitDy=0;" parent="1" source="wEqpazZtr3Mc7dN9a1HU-9" target="xoQxYvgc1eyN9p1Y89sl-15" edge="1">
          <mxGeometry width="50" height="50" relative="1" as="geometry">
            <mxPoint x="120" y="-10" as="sourcePoint" />
            <mxPoint x="764.52" y="-181.45" as="targetPoint" />
          </mxGeometry>
        </mxCell>
        <mxCell id="xoQxYvgc1eyN9p1Y89sl-23" value="serve" style="edgeLabel;html=1;align=center;verticalAlign=middle;resizable=0;points=[];labelBackgroundColor=none;" parent="xoQxYvgc1eyN9p1Y89sl-22" vertex="1" connectable="0">
          <mxGeometry x="-0.0705" y="1" relative="1" as="geometry">
            <mxPoint x="19" y="5" as="offset" />
          </mxGeometry>
        </mxCell>
        <mxCell id="xoQxYvgc1eyN9p1Y89sl-24" value="1" style="text;html=1;align=center;verticalAlign=middle;resizable=0;points=[];autosize=1;strokeColor=none;fillColor=none;" parent="1" vertex="1">
          <mxGeometry x="70" y="50.000000000000014" width="30" height="30" as="geometry" />
        </mxCell>
        <mxCell id="xoQxYvgc1eyN9p1Y89sl-25" value="2..*" style="text;html=1;align=center;verticalAlign=middle;resizable=0;points=[];autosize=1;strokeColor=none;fillColor=none;" parent="1" vertex="1">
          <mxGeometry x="239.99999999999997" y="-19.99999999999997" width="40" height="30" as="geometry" />
        </mxCell>
        <mxCell id="xoQxYvgc1eyN9p1Y89sl-26" value="" style="shape=stencil(lZ3ZkmQ3jkS/Rq9h3Jfnnpn/kJlKLVn3qGQl9Sx/P+TIbkaW+83DjLdWtSOSlwsIAg7gh/y3P3758fcvP6Twx5/fvv7jy3//+tOfv/yQ/+2HlH797Zcv3379c/2vH/K//5D/9vPXb1/+/u3rv3776a///v3Hjdz/6z+//tf+hf/5S26OR6pbKoX//etfYnzM8P//8h9/Cfzz19++F4hJBWoEgf6YIhAec6BAmypQaEj9UfJ3AvPRC+LTEHyeiI9R8KECvukXj0enGWqPrvjcEV+j4ENDvHxvf3RagPYIWfC4wvXRq+BTRnxpgg/8+/H7318TRvNTHiMLvtL8lEcNgs+0vsXHEwmfr+m+8PUxGV+C4PF78yMovtJ+Ttf//cSXhPhYBJ9o/PHRmuAD7beo81kek85veLQs+MH4MATf4XvH1PNVHg30zxiPqeMpMP8Ln5Pgab+NfqmPJz7R+PulDp74SONvl/q78Pkx4byMqvoqPwac34UPRfCNfv9tOp540j9j/VwXPOnPkR5T8bSfFz4HwUfQbyPq/lx/kPZD0PGkx6DxBN0/6boxb/F96vwk1Id9XMN94gucr277OV3/cI9fF3wVPN0XvV3b8YmPNJ513yme7se+1KXOD91Hfamb7/VJxPOy8HEqnuYnq/6Jj0G/ny7198R32g9r+nT8ZJ/0ZeCJBXdt8Ht88PmpoP8XPun4K6xvm5c6fuJJ37Zx2Zvv8HC+Fj43xdN4ln7Oiof5Wfhg4yF8u/78J/FV7Y0jPtr4YX+2db31V/Bv18M7PNxHCy/2QER93pKfl0zrFX1/ZhpPVH3y9g/3+KD6NuJ9vfBB8RHOS52PouMnfVjX/tf5oftr4bPOf4Tx1+777YBPqk8Q39SePOKj6gfEL/3/0vfW63r4JP7mvCA+X8+DT+PLS/Nj74UDPun9eMRH1Ve43+L1XP/kfo43+xP0eTX7auHh/C58tf3MeLtPCV/mo9t6MT7bfoPvLeMyHz83n+XN3fC59Sr95vcZ7+MnfLuZH9hvC+/zT/iq798Dvrj9cMC/pD9L1vfUER9eGn96TT+UdT++NJ51vb2iD0t4bf7zvDm/jLf5D2Af5uH6h94L2V2gl8PsHt/VPgn4HsztMabi4bxne++E68K/x9dHS4IfYF8tvNwXAf0tuag/YeHBvsr5eq488Z3mP+t+C+jPycm/t4F9tfDir1h4+t6o9lhAf1EO6h8O1wX7EV7288LDfkvzmu53eNgPC59sPDD+NK7p+DQ+2PgJ36/n2SfxTe+jIz7peiF+vadsPhkfX5rPcrljPo2384j4/OJ8ppv9yfjy0njs/XXEi31ywL+ps0/jX/r9OF0/H/ASnzrgzV9xxNdX1mvhw0vf29WfecSnV/RPfAvnfBrv+hD0f6zqnz/iq42f8dHwoJ9judEnjM+2vnAfxXyFT97hwX5Y+GrzD/fvwvt9Qfh0cx7hvovJ9SHdp/HNffy5+3pHuNV+IHtg4ZvZG7Re0deL4q0LH8weo/0W1F4Nl0L6CG/6n/zVC2/v9wDjmZd3+nPm87x5XVP095HssUDBEY1dxMv5/gFcjmLEUMR4FH3pJIo0uWM1k6Ndz0m8HNEfwNsrbtvur3zymnd/5NChbT72Rj52HzsdqeYRFNrxVQNGER9cFs9MGC+tau6n6z3yATxotIuiD0ZeSBg8KfqWTjiRRUMbCZ9+RTVBxshYvqhDTzg+1D1uS4cvaxgk4/GwWyqzFaiKI+MGTmqzZIy5pSsiccELugySMnAKRiiiPvgKX8i6ZwoSsux5y3SRpbSM7UK3pT7GGu73qL6+jrGkqBq4Y2g9amSOmVhRl2ngxWp+6HkZFh/BRUcG3AUedo2XI+MjfFL8gJUK5pZNaGcF4/HxCQzqptmGL2yFoGbiMsQTjqfIeBpaHuHa5m/4fj28P8DrBdsP8yk6YT3MSOUY7WM/LPF7xe2+/oVsoTs8+REdH68V/Nz498UJp+sOP3A/ZLk5T/tN8QX9xLZemxfG4xH8aX/KszZVfDfYftuOLR7/VDy9M4Iau9uExP0p9/NWtjh+taPezOuPzntSPPFogtF6TudF3JoLz+pcaHmZ/SLBTIajfi6Kp2s9mPXFvKegVvLCo1/BaHwZ34VRXxCZeXxRjfxcUN8aLSMX9kvpeV94fAfr/s8nw0ful4Un/Rl1f+Z2sGWEBrEDRWgqCS0p92sGPmdFLjzxjqM++XZgDMcjtIaFp/siKc0iz8tx+QFeHysTUxmSuilLQN5QUppaYb9OUs/FDpTieJQWzG/opG+5kvD+Mjf9wpNfM6nbujCPNambqWTknSWlxSw88RyTumV3oJ3iWnpfLDzFId+03xu+on1yh++4XkIzKg15x3d4inM6vqNj4g5PPFDHjxd/fyBP2fETeTF3ePITG74GtDfMDV2ZR3OHpzi549nV4/jT+XI860PFF8yLusOTV87nv774+xWdVUkdy7Xh6z0pjXjheb3kfVr7Qf+IPbmJknjeNW3mdL7aUDy9x5P6uuvpPhX7duH5vhA3amX72fDtdB4dz+sl9k9jb33SNLaF73hexJ5vCXltSWkuLWFcLilteuHJT5cs7S2jvZqUNtFO96/Ye+10/4o/auHZR6r4ijzrOzyfL8W3F3+f8w4d31/8fba3HT8u3+mn8cSrcvx8cfwTYw+G34kfeL4c316Zn8480zv8fOn3E/pPktJE+imkoPhyuN8VXw/zKf6Bznmo/vvtYB+KPumdeWqqrxb+oN++14ed/UVJ0xIW/nBfSFryaf9LGH7heX7kPhrMK3E856k4Pp3ud8PzfpbvHfmwvnKfjoKhe7sfB/tXk/IORj3Y50KrWng6j1n9V6OhfyPre3/hSR9a2sbgvPms9uHCUx5t1vM7BvoHin3vwPU1mu+YGNQsNv6JlIKiNMQZDnF58edM5g1ZHH9GzFM3msDCFxh/1f02I/rrjMY9E+elqf9hJrzfm+rbmfF90TV2uvAUr/QyHOy/7apvZznwXTR8WvC9PB7R8OSvG+ofmxXZDkPfg5PjO0P9+bsQBtVRUJrmZH1laUILT8HueZ3uN3zDeMRU/+08+KstoLUEkGhniSGzYQQ1Wohkdg5JRE2d2cVdmJuX7S/Qo8fJgrs8DbMRhw0JwzCWvj077otojtZ5cOybJbQEkGGYNTQ02ZRbAuLrnlzDZgmIs2YXIjqQYE2AbtdY7PoYHC6xsjFLAONDRQ3YJYABq2qFhwYTe6pSFpYApeovAV1prlUUmx2ggY/6JeBDIi+es8Ens2qil2eaqMeWgF78E3lqm8fRVIBuzmhVtbYAffRQ22gJ4OabylTaAnTipkYn58TX5c5ysL9A11UKav9uAXo/GUHoJBDtRjwKCCVhMgVgxzRtL9Edt4OONiQMIpoX/LA1klWr2buV3GhWPmoe/LxZH+77xNE3FFvpwZHQok/HrZcOKVT2F9CXWdXZflD3qd3oVjIdbsztzuHEZvZ/x7pcTyrje1uDTlw3i74joy0Nq3zHFILNjzcbEWP204yThkb95kAmFaBXXrZqGdvMpWez8YaWAPldcrCFq6juc7Q7rqAnPUezWwtSY7KluMyC5k+24NauQkdDSsoGmlxFa2fhyixxeGKzf0yA3pNLQG8gLhSViyljrpy0BPR+eCM7fyTgPgDMLbdaITOggbUEsnkxyAuQrZrBmGisLwH1C/EtuvPLgwqQgbUExDIezPTZRCYTQFeb2Xy7SB4NqetKLwGc1q5m6Gi8l4ZmAS4BMrDyUK0xKtcFMGU8KgYQ89Rn2ajHygkiUHi3Ts3j2cX76KPNqhwZgy4lqBdqsBdqk7jsL5Abv1g5yZGQV1qMaD8OOTpv9V3eCZAiK1GpVIMVWYnmO2ffZEk2rRGNxGLsq8FZlsXCZYPDfcX8553jibtuSlABcsCVoke0D4wYl6KVO5YAGeu7VIwIdKyNWao67ZYA2UvFihHs8oj0DU2rgS4B0hrFXuxLINJH24u9s+OxdFuHypGGbkNii6xYSb5ekPtUhs0SO5d30SSL1uLWsCozPeMrq9gTf8ePSS9ZnYGeMSFgF6KShUuojHelq6QC5HrcDDv7C/Q8XgKiyHrCoFKNagn0iCzJarTuznmz1XjUm1dAcaWkGZ89oL+1GjN3CZDpUC10uwTIDN0l34TrwzXSl4Bs78ZF0peAsq3Y61CLDYmV8WYjFhUgh9QSkKdlG6jIqhV2bR21RrVKL41Dspvx2FSAOAy7NqENibw/myMprLGG7tPabB04bL1ZlUEF6PFam7q8WkPbe/Mw7RvwxFlF1capF7XbOlQ0dGtXB22r6LuvXZ0Im81GCzfUElgCeICGllFuBfkbm+4ZVIAC8NUKqR0Yf3WaEijYKqEFDSe0jKqyWS2Lxkl+zS6Ulrkaq6UtbdolfYPlR7eEvNEWjaiZ8AHeLOLXEprSXhF3/U2yNZpxaRrXhN6TGFSAPCd7mZIKUPbDJqMWFSBLoFmxgs0Ppm8oagm0gDbfEpCAxRIgY30JSMh8CVBKw9YR389Snbz5qp6HfQZZwFng9BxoVb9hqwX6hqZeuMp5HK1Zv4uBnsQlIDH2ykHI1nQvVXZIPZm77wRwt1qNxzpQe7eu7LjKMfY2tEpQ5XSdZs7+ysSCJaAJFBx/WALDBIjh16ZWblxXPeqlaTkgnAO1BKb9BbofNge5q0DiavWa1sG0mW55s08b7SMBecdVbujSrWDr0868F0imZipSpbvnvpRTDwPxey8BsiqXQDEB8gl0qxr6fCDcC1h0oHIMZXsAZOEyKuNujMX9KiKBakc0c2sOC3NWLoLTm60DNy9ZAlq+JaFe2qTwqgL0BupWWWq/f+k8GF9jVxinae2m7rmpWR+mlyJ/w7jJ9cNvsB5BlYt+96mvrMrVOHaXl6kC5JsZ1hapBqSQDCug8vQHfSQgyrhMZOAPS9EvbJwsAdl8hTn7I1mvqYEur2FZiDuL9dBdyARwWrPW8SiD+zVlddsVLjSzefdNBcgSGFaRtjA1fRT76Ia7dVRVM0uA7rjddGqqAN3Tw6KWpXJbq6Yh81LRSFwCUjLskDA+ur6nC3c6u+n8VXhI5sYuXDlsWBCyZLS9x7ATl/k8TH3iF76ydjQ6qgBxQ8e0ITER/qYhHNfkm1YKasfP+C+II6RwAG9aKbHCTZNmVHdR4eyg3ZUvqADR86eVaS4B8/en61ZO6J3JVpovlGkp0juezH9BbqA8uZdlViNxCZCrZXpVwsErnfWeXgKkjKeV882cFz6t31juPKSi23u3LKB1KFa5kb3SsyjnJHOu/TTq8y6OQ3+hKqN8CZB1P6umP+SKToTpbQ8P+RvVCjJVvNinkatz4U62TXnGu/cCt47VlS7ce7UpuyhzEuu05i1LAPVSV8337NfwkYA8mjI7N2e3lT6oyq6h2sxch53tIGVVJ1qV03KTnnWOPxLQYnLswXqmFrwJsH/pmSnwTgCV8VDjJLFvZloCVGKL7En8fyeAamZard3CR3TqW3TXcaXzMNWqPFTQ3QJVBegBPi2Naxcu448WU/pQz3waTyAF9FVuAalsyakAS0A2X+Skj1sB7DHsAvykuRFo3AXbEiZi47rm09osVe5bPq3AKCcozmmNKcvpPCQvwXoQkFliUu8+QCZAGRbTm3Fy1dlpqTEx8AGy9jSTP8HiqPM4IKEls1lsxJ/Jlv2wHBQ2WYclELKlNLwMMf6+KdXD+G1LHOZnatzuMP9TnxmH9Z1Whf+wgezFugTIqbQFkgrQE3cvQVUBbME+rLw+M4SeWXnvh8S7TpvQMe98DutyGpCz7edyCVBA9+4gU7KKj4g5Tv7J82RSdT1oFKHwRTsfTDtofH8EHT85S31fTzbl7eDM0/X0Kl5i1+sqOHywtg7hTg1LQNt7JAzIzGmtbDMfG29+cnhQWYAyFvSfTUu7j5UP5rQbtuGQYgjWEJZtozuJQ9L6jcTRwtNOLgNdynNa1w+uL+JLcSiQvhe7qsDBrBVP/S76e9h/3x/pxJkCS0Cso8RFmfcZmiqAnpipzIZdyIUFtG54ZZNw6oN+l0LhbxALYD1VD4dOoqCps2rypyonrPrdkzgPeOezip8kIFXumc/6TgC93MPqJ3OMclpBlpy4NVPXN1VOfOMa7TJn5C1PaxWeM++lrgGQnNlD3MxJx1WqZrOy2lx2fLvQrE45umObBgRzZVVpDZB3i1fSGtWa3VT2V1W9F3PDPK/tXbXi5njNGTM6cymXWdXa2OXN6Uy7D5rrsW4vtxUsRz+JEQozZ63Pooosc4nG6R2WJltAWW3oPHlIFo3O8zQkee4VzkWYViewBHZaW2HfcyBKK6lzx7tpGRu7VDupmaiqcofrWKCYAL5yrdFROdi61vV0CeB5CFa/PLHfMChLpiSOqFuyZ+FUzF0QrqgA8aGGtS4ubM0MoywWJoE9a+C9EyDf5zNz+Z0AqZnRlb1XKse7u+2ligdoCWgIvuJK78KFcqYbPtWH5YQUrr09qq0DFxddAtotgO+HUY0K0dEiG6bulwAyG4qShEtnLlHWx2LhdNJhJSILx4qH5XktAcoJGck+mi+U4V0wuELOsGyHwmVSh1XTKBPz4kfUp2Vl19UIRnTmSpEj6JmuAV1RO3NZqHLctrTbo6keunlODZtuyiINyV4omxRJf8ESkmpCB98u31tUAL+h61v0TB0VdV85Vb9ba/hNf6VvaMY1zUzsbGr+VA6Qd6MR1MwEW7OMd+okfUNR675yanK3RMklQAlJO9W5qAAuXFbjZOda0ixlW4fKLPusd1zlapzd2yGwm2JnLkcVwJWORgevvNJRc6RqY7J21NDJoeVFtx6OteFLsVs1jZ2cSd8QTC91/IbmvOWO39AsK3EnZ1IijPnJK3cBbcZsOCXzDMvY4It9JyJbfhFZlTsR2YZ0yGDybiJUrqxZhZzKdRdbN9L8RFO6GV+2cpHDZoUllgAmGVqm8RIgE641JZxXDj42U/c7hZXWoVqXjYDsvSXQ7C8Q/2MJaJbuIY2xWtIt1yd45hW/E8CtUSzjm7MdmpnSjUkvLVtmZWQlYI6QFjk7NFs+dsIbqBnxf2fpclqvMK52HjAtnHWUa+xvfWb9vglwA+9mraF3oi//BaE37aYztHCWE9K4MF2zNp6Ne2c3c1Ocs9b1iDLL/qmF3glgnQiLjK4ziJUohvpbG3NN9/VRVAALGgwl2DbuBlK71mhr3A6hWnSgcb3watZ945yQ2uzENaTwVvNrtIbckSUgD/BdfoMWrtk3sDVTrUtA4yqhtVqbKi4xVY3o3AYqgWpZiY1rqW7T3P4CvR92LmhXASqZsN8jUwVw4aya96GZUbUXSuPo8c7ULCpAlnG1kgk795hq8Nw1QMKtYR0plwAxo6u1QF0vikTTajkhnXt+16iWQI+sZuxC6RwB32mRWQWIlvP09bwTIJ/xEtAhZXTmlGmdljKehzL1jtvZzVR9zPzevSBZu5jfuxd87W5Ho/0FMhJ30qK1oyI3xU5atLJxFLDYSYtVBcjlVexC6RW1Rmk2S9xSvVhR6F1cj/+CzhJXQChVbe/OXZxLVUugc2nUUrU+Qefiq6WoKd0Hen+KuYs6vxSL1X7Z2c0sIA/w7bKlI2odK87lLLV7UURyRDF30eD27SUqL3cJkN/72R76TSChgbUzBE0Az7S1SxkZowO7NKpVa0U1Y674wSUTdqzYKs4ehiT1wgdrvp1SGFSAPCd5qqrcZXapVLBp713Il2sLy6PpXCpYi0I3dMXnoWVQBleGz+bsH9wYZwmIk/lcslliimNgKmY2/9Lg7ie5KZN/TLyyNunFSmdj3fammcZLYNKQjGgzA9bg2TmIUwXoTGdvrRC51rbVtJ2syLKFEyYn6OWiZ3om3ktFHxyTA0fZqlPOjE6EnK2kf0aH1CayDRXAdbD2ypOJZzlZK6rCfQzM+zPZTbEEhOo5mXi2BCTGvluU0cKZ7b2paPQNwZJDGvf1sHDC5AJQyRL05qHNr6cBdHQMJsvdnFx7PnXrXXXopNpf7PCVujXsYp9AsuIYm48KC7f7q1hnKWy9U23h2KpMVa3KyZn3qdjCTaTc7g6X3quHvsFabh6aLCWrHjA5uSpZXa0nZfxewMhzkyMcOz3VvoG0RrLqY/PQ992q20/O4PK+T+/SCe4lrLXUJySSzROZWLs/lvVlOgjoIeUk8d3jy5qC0T0aPWFqYspENE755BSraFy1w26KFlWcTCddAt7ji8iesVkWF6dxRatwNjlvKlqF5MlhyFjtap9IIolWDenQRSzWm1nCBnNFvcZzov6O3hqH3+w7Fdn20qGlozZBOjT6M4/rHLxbs13tA13l0XutDdSuMVku8KHhYtIXxBxoxD0z3N7fo9yA1LtMHjqWqtXH9WWWgGoNbiwdgyU2dnQCx2DT2rnLpJWF3j1RuXOsBAlnxzM9bWewG25amz+ONE17AjV0OljhitnQ8vYkcXYI+FXCOVnePJmTDo0lPbn6jlVYmRUNJav5Mjni2q0hbWGKg/oaZsFHsUUeZ8HxNCX9zcxFxe1C4MB9VSfXTsuA9a3WRI+zC6r6k2bk1iLK4Z0R9WKxKzYiD8dSc2bgBknWsoltr2weOi6RYnSUwXUozR/xTEz4AK/jH+jwSDfuPOJxJLUnRuNXwo1Dkm6lZB2wKtYPNufIqNwKU6k0g50pSQlKI3PnzBs8edkczz0BkvlrI5rJjudyskmfQ4Ozugx/iNgkde72Q1db1c+dM+VsP3Tu5p1U33Zu/ZLUYu/9sF7eVIvIw8l6OTE95w5PzvJkUcLCngrDM83d8Xy/2HnvfF/c4Ylm7PiAzNA7/GE+vcHSK+M58FMcf9r/jk+ofxR/8CDe4F8b/8HLeoPHNtl3/LdX9mfj2r12vg7Ndu7wZC9ZC7DNcGV9NRSPbm5reJTZ92nNtrgqo+nnlk763PrH8H6W+3oThPm+lvkJyPm3+7Fx7VrDV3bm2f1eJ0Z7LM2usifCOzqczrswv2o/7GfNgONs+2QJDif70DNZsOG7epsqd/xKSnfdLTJwfyq+ILvvDn/4fUsbO8yP4fm+Vjz3qHV8RFKcf29E96DjT+dL/BtlYormHZ44GI4fB/vZ8eQkczx367H5eZLXPonnrn13eL6vFV+RkWj7Z+ek43i0BDsXRfEKDafzpfXUudtq0rjarjxATlCr/Z+ROhKtQQJ3TrXcwYVHp6yllkcsQWhe4hLQ3ogaZTmUao83ldrJf2XV6fPE+ytqLCAP1FdRg295oP6Mao/ljv5b61ySOweV1H54trT/AK8lfjhxM+p5zJxKGjVHMnNya7Ci9OxfDbo/N0sI5jOofzIXfH9Zw4VN+YH9Gay2D7eFNJ7ik7/zET4pnngrwcqBcRvjYPszHuZH92dAdoW1Rct83oPVxeb0CeP1pIn+26D7OQ187xjrM3HIKSghZnNq+Pe/X9/U8P4KVoGu4fvFyiUmvn/v8OT/9/GczqPjyR/o88PvU8cn9K9amvnzRfbJ9eV80WCV5APa50G5Gomr4dr+jEwRsP0fOf87WNFjrnhoFU4i5yUEfZ8+WRIf6R8Zfz3Mj1CvYjmcF9GHkYnnFjCO/D4KmvIZI/qXTP/vIDj+vtgzkZPDghYVnBi+CBZ+OWgr5WofBiPGXse3VNBYaD9cXZp4ioxoSzCuGIiwxksV42RR2XEFw4hWyygzR8x6AzEF0ip8nnyMOhi60pPVQOWMAH3RJTRgsjoME9oLWfd7QvPdmoMm1B5FvWdc+LSY8kDbwtpGR6R2FE1o5F6UVWtIcolho5pF1JNVNQG7XauVw+ZiF+pl4Jwqq6Qa0OfaVHHwFd71yg/oEe2a3xW416s+ILhJi7UwDdz4T80DzhQeugkCt9nU0mEBLxtrMBEO1Kqkq4olfpVZFbjLimakcbHR3cRAl5X8WDEosSSw38IuPy4HE624HXeQ3+S8qXgav1X8CJhOt+mFiqfSSDEp0S5gskS0HPbAxeuT0rCZ5x2zqvrD72dNzeZ6P9G69R3wRe9Bboqxiby6H3A+q2uGA74anvxYVW+rA76pYX/Ed5t/5o8nGz/jm42f9vPQh9sRX219GT9VNSPemnkd8S+d36e6/DTezyPh44u/bxUoDngLrB/x85X12sQ828+EL67PD3izeRBfNfB0xLs+IXzTwPoRP16an/7ifA632g74ZvqZ3kxTye5HvBmd5CfLQYkZfP8uvO1Pirvung92v9MrzgJtAf3i2YqYca+sfHP/Ui7kbt+g80n2WC5+3sney1Xf0ByXfnZWeIcnnm+7sW5pP1g/isA8367ZG+FUSsD0A8XVs3Wv4zoZ2XoUMs8uW2IF1/Yv5sk64KPbnwf8sPkhfNLAzQFvdWqP+P7SeCxn9Yg3ewPx9cX5t94kR3y3+eQaP/YMP+DtPkL8cPuE9vMutGS/T3hr98pxuTJv5ofcPebY5/NbLdB5/H0/v1zfy/cnebfijf6hPBIjkvH61uTvO9qfNbv9dsC/pB+qFTY94IsSGw74m/vugDd3C+KtQO4R316aH6vpdcT3V/RPHb4/sTKhleY54K2tcEA3eQvqVueuX81SJwOXfTYiSkAeTbt5f1ELvJbcPiGeZsvqzg7oW29ZiUwcZ2t2XiL6i5q1mTritYMk45sS0Q/4rvvhiO82fpp/u++OeG3TyNV55xV2f4fnivVJwxsUIlj4oeMhf+muua/zQ/7YbuUxIlYI7Nbtinl5PVvgGANdvfh46H3RrQsaN67q1Xquct5tU30S0d7Y5Q8VT/qwW117DqZ1K74TOQhkzQIS+m+71RtK3E/KiA3MW/HmNtxTZVhRQI6rDkvcYF7bMPsnYQGQhbf5IX0+ioammFfrbZ4473mnkQpxEXnEz7p5Tzy9x73XVuYmUqafM+bBD7NPMhbQGtZUuqC//aYFG+rPafEy7jUzjXjJeVHzRcLF7syn48HGrabPC7cwTeo/LNyUPGu8oHJbS298g7za6Z11uO+sdVqoGMud3hsI9cMumyAtOFDf7gpzktjFPWer2g/HRqQSn2roH3uWl3visT1yszrJGG+dFs/qx4a2SpaivMndMVfqo/J4ulXO5Sb1XsaTm9l2K7rGvWyHVaZD/bZr1Yg9wOQEb7wcI9KgptVSjVyaYpcAiipwah6dTIAW4U7g0M9a0iti5GUbZvZxDc8tYIRKephsgWgCvDN04RK34x1KzYgJbYnpb5/jXxDjKSZ8/cyh0bPIae5boJoAT+tJYP2P33/885e//uPnX//5zz/+/Pb1H1/e//8/f/325e/fvv7rt5/e/umPX378/cv6r/8D);lineShape=1;" parent="1" vertex="1">
          <mxGeometry x="158.59966929452298" y="-214.03693523599577" width="438.2174169560533" height="235.48767688692442" as="geometry" />
        </mxCell>
      </root>
    </mxGraphModel>
  </diagram>
</mxfile>
